<?xml version="1.0" standalone="no"?>
<!DOCTYPE svg PUBLIC "-//W3C//DTD SVG 1.1//EN" "http://www.w3.org/Graphics/SVG/1.1/DTD/svg11.dtd" >
<svg xmlns="http://www.w3.org/2000/svg">
<metadata></metadata>
<defs>
<font id="apex_newthin" horiz-adv-x="1064" >
<font-face units-per-em="2048" ascent="1536" descent="-512" />
<missing-glyph horiz-adv-x="409" />
<glyph unicode="&#xfb01;" horiz-adv-x="1212" d="M72 1001v19l188 4v195q0 327 524 327q81 0 197 -16v-25q-98 19 -197 19q-499 0 -499 -303v-197h696v-940q0 -40 21.5 -57t76.5 -17v-20q-70 0 -96.5 22t-26.5 78v911h-671v-1001h-25v1001h-188z" />
<glyph unicode="&#xfb02;" horiz-adv-x="1212" d="M72 1001v19l188 4v195q0 327 524 327q81 0 197 -16v-1446q0 -40 21.5 -57t76.5 -17v-20q-70 0 -96.5 22t-26.5 78v1419q-92 15 -172 15q-499 0 -499 -303v-197h391v-23h-391v-1001h-25v1001h-188z" />
<glyph unicode="&#xfb03;" horiz-adv-x="1908" d="M72 1001v19l188 4v242q0 142 85 211t265 69q59 0 117 -8v-22q-58 8 -117 8q-154 0 -239.5 -59.5t-85.5 -200.5v-240h671v195q0 327 525 327q80 0 196 -16v-25q-98 19 -196 19q-500 0 -500 -303v-197h696v-940q0 -40 22 -57t77 -17v-20q-70 0 -96.5 22t-26.5 78v911h-672 v-1001h-25v1001h-671v-1001h-25v1001h-188z" />
<glyph unicode="&#xfb04;" horiz-adv-x="1908" d="M72 1001v19l188 4v242q0 142 85 211t265 69q59 0 117 -8v-22q-58 8 -117 8q-154 0 -239.5 -59.5t-85.5 -200.5v-240h671v195q0 327 525 327q80 0 196 -16v-1446q0 -40 22 -57t77 -17v-20q-70 0 -96.5 22t-26.5 78v1419q-92 15 -172 15q-500 0 -500 -303v-197h391v-23 h-391v-1001h-25v1001h-671v-1001h-25v1001h-188z" />
<glyph horiz-adv-x="2048" />
<glyph horiz-adv-x="2048" />
<glyph unicode="&#xd;" horiz-adv-x="2048" />
<glyph unicode=" "  horiz-adv-x="409" />
<glyph unicode="&#x09;" horiz-adv-x="409" />
<glyph unicode="&#xa0;" horiz-adv-x="409" />
<glyph unicode="!" horiz-adv-x="368" d="M154 20q0 12 9 21.5t21 9.5t21.5 -9.5t9.5 -21.5t-9.5 -21t-21.5 -9t-21 9t-9 21zM168 1536h33l-8 -1106h-17z" />
<glyph unicode="&#x22;" horiz-adv-x="552" d="M158 1536h32l-10 -512h-12zM362 1536h33l-10 -512h-12z" />
<glyph unicode="#" horiz-adv-x="1136" d="M25 393l8 25h246l133 444h-283l8 25h281l119 393h26l-119 -393h394l118 393h27l-119 -393h248l-8 -25h-246l-133 -444h283l-9 -25h-282l-117 -393h-27l117 393h-393l-117 -393h-26l116 393h-245zM305 418h393l133 444h-393z" />
<glyph unicode="$" horiz-adv-x="1167" d="M123 881q0 147 117 211.5t368 64.5q28 0 94 -4l93 256h24l-94 -258q177 -12 291 -51v-21q-76 21 -190.5 39.5t-217.5 18.5q-110 0 -189.5 -11.5t-143.5 -39.5t-96 -79t-32 -126q0 -113 94 -157q69 -33 255 -47q21 -2 65 -5h1h1l1 -1h1h1h1h1h1h1h1h1h1h1h1h1h1l1 -1h1h1 h1h1h1h1q54 -4 86 -7t76 -8t69.5 -10t59 -13t52.5 -18t41 -24t33.5 -31t22.5 -39t15.5 -49t4.5 -59q0 -145 -122 -216t-387 -71q-45 0 -68 2l-90 -254h-25l92 254q-89 6 -178 21.5t-137 33.5v21q77 -22 190 -40t216 -18q485 0 485 267q0 48 -12.5 83.5t-38.5 58.5t-57.5 38 t-79.5 24.5t-94.5 14.5t-110.5 11q-25 2 -37 3q-221 19 -292 36q-124 30 -158 108q-17 38 -17 92z" />
<glyph unicode="%" horiz-adv-x="2064" d="M98 913q0 197 87.5 287t263.5 90q174 0 262 -90t88 -287t-87.5 -286.5t-262.5 -89.5q-176 0 -263.5 89.5t-87.5 286.5zM123 913q0 -192 82.5 -274t243.5 -82t243 82t82 274t-82 274.5t-243 82.5t-243.5 -82.5t-82.5 -274.5zM565 0l905 1280h29l-905 -1280h-29zM1266 367 q0 197 87.5 286.5t262.5 89.5q176 0 263 -89.5t87 -286.5t-87 -287t-263 -90q-174 0 -262 90t-88 287zM1290 367q0 -192 82.5 -274.5t243.5 -82.5t243.5 82.5t82.5 274.5t-82.5 274t-243.5 82t-243.5 -82t-82.5 -274z" />
<glyph unicode="&#x26;" horiz-adv-x="1490" d="M72 381q0 77 18 139.5t45.5 104.5t75.5 80.5t90.5 62.5t108.5 55q-113 202 -113 412q0 59 16.5 111.5t52 98.5t100 73.5t150.5 27.5t150.5 -26.5t100 -71.5t52.5 -97t17 -110q0 -44 -13 -84t-32.5 -70t-52 -59.5t-62 -49t-72.5 -42t-73 -35.5t-73.5 -32t-65.5 -29 l-54 -25q57 -98 164 -227q191 -236 436 -387q142 133 220.5 343.5t78.5 479.5h25q-3 -274 -82.5 -487t-222.5 -347q156 -95 373 -182l-9 -18q-221 88 -381 186q-208 -186 -501 -186q-95 0 -175 20.5t-147.5 64.5t-106 122t-38.5 184zM96 381q0 -87 28 -154.5t72 -107.5 t104.5 -65.5t118 -34.5t120.5 -9q283 0 483 176q-253 159 -438 389q-96 117 -164 232q-67 -32 -111 -57.5t-88 -62t-69 -77.5t-40.5 -99t-15.5 -130zM319 1235q0 -211 109 -404l57 27q23 11 67.5 30t73.5 31.5t70.5 34t69 40t58.5 46.5t49 56t30 65.5t12 79.5q0 57 -16 106 t-49.5 89.5t-93.5 64t-140 23.5t-139.5 -24t-92.5 -66t-49 -91.5t-16 -107.5z" />
<glyph unicode="'" horiz-adv-x="348" d="M158 1536h32l-10 -512h-12z" />
<glyph unicode="(" horiz-adv-x="471" d="M113 614q0 176 22.5 343t60 295.5t77 223t81.5 162.5h29q-43 -68 -83 -163t-77.5 -223t-60.5 -294.5t-23 -343.5t23 -343.5t60.5 -294.5t77.5 -223t83 -163h-29q-42 68 -81.5 162.5t-77 223t-60 295.5t-22.5 343z" />
<glyph unicode=")" horiz-adv-x="471" d="M88 -410q43 68 83 163t77.5 223t60.5 294.5t23 343.5t-23 343.5t-60.5 294.5t-77.5 223t-83 163h29q42 -68 81.5 -162.5t77 -223t60 -295.5t22.5 -343t-22.5 -343t-60 -295.5t-77 -223t-81.5 -162.5h-29z" />
<glyph unicode="*" horiz-adv-x="745" d="M10 1264l10 34l242 -94l-2 -6zM137 872l164 199l6 -4l-141 -217zM354 1536h37l-14 -258h-8zM438 1067l6 4l164 -199l-28 -22zM483 1204l242 94l10 -34l-250 -66z" />
<glyph unicode="+" horiz-adv-x="1228" d="M205 686v25h397v397h25v-397h397v-25h-397v-397h-25v397h-397z" />
<glyph unicode="," horiz-adv-x="368" d="M133 -256l49 297h39l-71 -297h-17z" />
<glyph unicode="-" horiz-adv-x="757" d="M123 686v25h512v-25h-512z" />
<glyph unicode="." horiz-adv-x="368" d="M154 20q0 12 9 21.5t21 9.5t21.5 -9.5t9.5 -21.5t-9.5 -21t-21.5 -9t-21 9t-9 21z" />
<glyph unicode="/" horiz-adv-x="733" d="M0 -410l707 2048h26l-706 -2048h-27z" />
<glyph unicode="0" horiz-adv-x="1234" d="M133 641q0 170 23 287t78 200.5t148.5 122.5t233.5 39t234.5 -39t150 -122.5t78.5 -200.5t23 -287q0 -171 -23 -288.5t-78.5 -201t-150 -122.5t-234.5 -39t-233.5 39t-148.5 122.5t-78 201t-23 288.5zM158 641q0 -334 102 -482.5t356 -148.5q130 0 218 37t142 116.5 t77.5 195t23.5 282.5q0 332 -103.5 480.5t-357.5 148.5t-356 -148t-102 -481z" />
<glyph unicode="1" horiz-adv-x="677" d="M74 1198v23l332 69v-1290h-25v1262z" />
<glyph unicode="2" horiz-adv-x="1157" d="M117 0v20q497 443 511 455q212 194 277 286q61 87 66 183v21q0 158 -97.5 231.5t-330.5 73.5q-93 0 -192.5 -15t-162.5 -36v20q52 21 156.5 36t196.5 15q110 0 190.5 -15t130.5 -41.5t80 -68.5t41.5 -89.5t11.5 -110.5q0 -142 -97.5 -255t-569.5 -533q-109 -98 -170 -152 h878v-25h-919z" />
<glyph unicode="3" horiz-adv-x="1142" d="M133 -207q48 -15 151.5 -27t196.5 -12q113 0 201 20.5t145.5 56.5t94.5 87t53 109t16 127q0 113 -24 185.5t-81.5 115t-139 59t-209.5 16.5h-207v25h213q393 0 393 356q0 83 -24 146.5t-77.5 112.5t-146.5 74.5t-223 25.5q-81 0 -176 -11t-156 -28v20q60 17 161.5 28 t170.5 11q259 0 377.5 -92.5t118.5 -286.5q0 -154 -77.5 -251.5t-232.5 -114.5h2q196 -9 279.5 -101.5t83.5 -289.5q0 -200 -130 -310t-405 -110q-88 0 -197.5 12t-150.5 27v20z" />
<glyph unicode="4" horiz-adv-x="1228" d="M100 236v18l764 1036h19v-1030h235v-24h-235v-492h-25v492h-758zM133 260h725v983z" />
<glyph unicode="5" horiz-adv-x="1144" d="M115 -201q46 -18 140 -31.5t185 -13.5q570 0 570 467q0 67 -11.5 122t-27.5 95t-47.5 71.5t-58 51.5t-72.5 34t-76.5 21t-86 10.5t-85.5 4t-89 0.5h-7l-283 -4v653h831v-25h-807v-606q202 6 308 6q68 0 121 -3.5t111 -15t100.5 -30.5t83 -52t65.5 -78t40 -109.5 t15 -145.5q0 -92 -21.5 -166.5t-55.5 -124.5t-85 -87t-101 -57.5t-113.5 -32.5t-112.5 -15.5t-107 -3.5q-93 0 -184.5 12.5t-138.5 30.5v22z" />
<glyph unicode="6" horiz-adv-x="1220" d="M129 712v15q0 163 14.5 284.5t52 226t100.5 170t161 102t233 36.5q218 0 357 -47v-24q-41 17 -139 34t-218 17q-128 0 -223 -36.5t-154.5 -100.5t-95.5 -163.5t-49.5 -211.5t-13.5 -260v-215q39 422 477 422q87 0 156 -15t117 -39.5t83.5 -62t56 -77.5t32.5 -92.5t16 -99 t4 -104.5q0 -79 -10.5 -143.5t-40.5 -129.5t-80 -109t-135 -71.5t-199 -27.5q-106 0 -186 20.5t-133 48t-89 87.5t-54.5 105.5t-27.5 138.5t-10.5 149.5t-1.5 172.5zM166 471q0 -83 10.5 -146.5t40.5 -125t80.5 -101t134.5 -64t199 -24.5q106 0 185.5 24t127.5 64.5 t77 101.5t39.5 125t10.5 146q0 59 -4 106t-15.5 97.5t-31.5 88t-53.5 72.5t-79 57t-110.5 35t-146 13q-110 0 -195 -30.5t-134.5 -78t-81.5 -112t-43 -124.5t-11 -124z" />
<glyph unicode="7" horiz-adv-x="1093" d="M104 1255v25h887v-16l-655 -1520h-31l653 1511h-854z" />
<glyph unicode="8" horiz-adv-x="1212" d="M96 397q0 169 86.5 270t278.5 128q-163 28 -235 120.5t-72 249.5q0 93 23 161.5t75 118.5t140.5 75.5t213.5 25.5t213.5 -25.5t140.5 -75.5t75.5 -118.5t23.5 -161.5q0 -156 -72.5 -249t-234.5 -121q191 -27 277.5 -128.5t86.5 -269.5q0 -199 -118.5 -303t-391.5 -104 t-391.5 104t-118.5 303zM121 397q0 -88 23.5 -155.5t77.5 -121t150.5 -82t233.5 -28.5t233.5 28.5t150.5 82t78 121t24 155.5t-24 155.5t-78 121t-150.5 82t-233.5 28.5t-233.5 -28.5t-150.5 -82t-77.5 -121t-23.5 -155.5zM178 1165q0 -80 19 -141t65 -112.5t132.5 -79 t211.5 -27.5t211.5 27.5t132.5 79t65 112.5t19 141t-19 141t-65 113t-132.5 79.5t-211.5 27.5t-211.5 -27.5t-132.5 -79.5t-65 -113t-19 -141z" />
<glyph unicode="9" horiz-adv-x="1220" d="M125 809q0 79 10.5 143.5t40.5 129.5t80 109t135 71.5t199 27.5q106 0 186 -20.5t133 -48t89 -87.5t54.5 -105.5t27.5 -138.5t10.5 -149.5t1.5 -172.5v-15q0 -163 -14.5 -284.5t-52.5 -226t-100.5 -170t-161 -102t-233.5 -36.5q-217 0 -356 47v24q41 -17 138.5 -34 t217.5 -17q128 0 223 36.5t154.5 100.5t95.5 163.5t50 211.5t14 260v215q-39 -422 -477 -422q-87 0 -156 15t-117 39.5t-83.5 62t-56 77.5t-32.5 92.5t-16 99t-4 104.5zM150 809q0 -59 4 -106t15.5 -97.5t31.5 -88t53.5 -72.5t79 -57t110.5 -35t146 -13q110 0 195 30.5 t134.5 78t81.5 112t43 124.5t11 124q0 83 -10.5 146.5t-40.5 125t-80.5 101t-134.5 64t-199 24.5q-106 0 -185.5 -24t-127.5 -64.5t-77 -101.5t-39.5 -125t-10.5 -146z" />
<glyph unicode=":" horiz-adv-x="368" d="M154 20q0 12 9 21.5t21 9.5t21.5 -9.5t9.5 -21.5t-9.5 -21t-21.5 -9t-21 9t-9 21zM154 768q0 12 9 21.5t21 9.5t21.5 -9.5t9.5 -21.5t-9.5 -21.5t-21.5 -9.5t-21 9.5t-9 21.5z" />
<glyph unicode=";" horiz-adv-x="368" d="M133 -256l49 297h39l-71 -297h-17zM154 768q0 12 9 21.5t21 9.5t21.5 -9.5t9.5 -21.5t-9.5 -21.5t-21.5 -9.5t-21 9.5t-9 21.5z" />
<glyph unicode="&#x3c;" horiz-adv-x="1228" d="M215 682v33l799 452v-32l-774 -437l774 -436v-33z" />
<glyph unicode="=" horiz-adv-x="1228" d="M205 524v25h819v-25h-819zM205 848v24h819v-24h-819z" />
<glyph unicode="&#x3e;" horiz-adv-x="1228" d="M215 229v33l774 436l-774 437v32l799 -452v-33z" />
<glyph unicode="?" horiz-adv-x="1024" d="M102 1487v20q33 12 129.5 25.5t155.5 13.5q124 0 214.5 -20t144.5 -53t85.5 -84t42.5 -103.5t11 -120.5q0 -39 -3.5 -73t-12 -63t-17.5 -52t-26 -44t-29.5 -36t-37 -31t-40.5 -26t-46.5 -23.5t-49.5 -21t-54 -21.5q-74 -28 -122 -58t-72 -64t-32.5 -66t-8.5 -76 q0 -40 6 -80h-16q-11 44 -11 84q0 69 19.5 114t75.5 87t161 82q112 44 153 70q114 72 134 222q4 35 4 74q0 67 -11 118t-42 99t-82.5 78.5t-136 49t-199.5 18.5q-76 0 -160.5 -13.5t-126.5 -25.5zM324 20q0 12 9 21.5t21 9.5t21.5 -9.5t9.5 -21.5t-9.5 -21t-21.5 -9t-21 9 t-9 21z" />
<glyph unicode="@" horiz-adv-x="1675" d="M61 512q0 96 10 178t34.5 162t63.5 143t100 117.5t140.5 90.5t188 56.5t240.5 20.5q158 0 277 -16.5t205 -52t142.5 -85t90.5 -123.5t47.5 -159t13.5 -199q0 -101 -12 -182t-32 -137t-51 -97.5t-64 -65.5t-77 -38t-84 -18.5t-90 -4.5h-69l-7 97q-81 -54 -152 -80.5 t-169 -26.5q-100 0 -171 30t-111 87t-58 131t-18 172t18 172t58 131t111 87t171 30q98 0 169 -26.5t152 -80.5l7 97h18v-797h68q107 0 180 34t113.5 103.5t57.5 161t17 221.5q0 95 -8.5 167t-30.5 138.5t-59 113.5t-94 86t-136 62t-184 35.5t-239 12.5q-130 0 -236 -20 t-183.5 -55.5t-136 -89t-95.5 -115t-60 -139.5t-32 -157t-9 -172q0 -92 9 -170t32.5 -156.5t61 -140t97.5 -115.5t139.5 -89.5t189 -56t243.5 -20.5q163 0 313.5 18t247.5 48v-23q-204 -63 -561 -63q-137 0 -249 20.5t-194 56.5t-144 90.5t-101.5 117.5t-64 143t-34.5 161.5 t-10 178.5zM473 512q0 -68 8 -122.5t30.5 -107.5t58.5 -89t96.5 -58t140.5 -22q94 0 167.5 27.5t153.5 80.5v582q-80 53 -153.5 80.5t-167.5 27.5q-80 0 -140.5 -22t-96.5 -58t-58.5 -89t-30.5 -107.5t-8 -122.5z" />
<glyph unicode="A" horiz-adv-x="1208" d="M51 0l547 1546h12l547 -1546h-27l-159 453h-735l-158 -453h-27zM244 477h719l-359 1028z" />
<glyph unicode="B" horiz-adv-x="1169" d="M133 0v1536h479q124 0 210.5 -27.5t133.5 -79.5t67.5 -117t20.5 -151q0 -156 -80 -251.5t-237 -108.5q194 -2 282.5 -96t88.5 -302q0 -72 -13 -129.5t-47 -110t-88.5 -87.5t-141 -55.5t-200.5 -20.5h-475zM158 25h460q107 0 188.5 21t131.5 55t81 84t42.5 102.5 t11.5 115.5q0 217 -99 300t-347 83h-469v-761zM158 811h469q391 0 391 350q0 61 -8.5 108t-34.5 94.5t-70 78t-118.5 50t-176.5 19.5h-452v-700z" />
<glyph unicode="C" horiz-adv-x="1159" d="M102 768q0 193 29.5 332.5t97 242t182 153t279.5 50.5q221 0 367 -53v-23q-155 56 -367 56q-300 0 -431.5 -184.5t-131.5 -573.5t131.5 -573.5t431.5 -184.5q212 0 367 56v-23q-146 -53 -367 -53q-165 0 -279.5 50.5t-182 153t-97 242t-29.5 332.5z" />
<glyph unicode="D" horiz-adv-x="1257" d="M133 0v1536h442q119 0 210 -23t154.5 -70t106 -110t66.5 -153t33.5 -187.5t9.5 -224.5t-9.5 -224.5t-33.5 -187.5t-66.5 -153t-106 -110t-154.5 -70t-210 -23h-442zM160 25h399q113 0 199.5 19.5t149.5 61.5t105 101t67 145t35.5 185.5t10.5 230.5t-10.5 230.5 t-35.5 185.5t-67 145t-105 101t-149.5 61.5t-199.5 19.5h-399v-1486z" />
<glyph unicode="E" horiz-adv-x="1071" d="M133 0v1536h836v-25h-809v-700h731v-25h-731v-761h809v-25h-836z" />
<glyph unicode="F" horiz-adv-x="1005" d="M133 0v1536h811v-25h-786v-700h708v-25h-708v-786h-25z" />
<glyph unicode="G" horiz-adv-x="1269" d="M102 768q0 193 29.5 332.5t97 242t182.5 153t281 50.5q244 0 400 -65v-25q-173 70 -400 70q-300 0 -432.5 -184.5t-132.5 -573.5t132.5 -573.5t432.5 -184.5q119 0 234.5 18t185.5 52v643h-344v25h369v-685q-170 -73 -445 -73q-166 0 -281 50.5t-182.5 153t-97 242 t-29.5 332.5z" />
<glyph unicode="H" horiz-adv-x="1265" d="M133 0v1536h27v-725h946v725h27v-1536h-27v786h-946v-786h-27z" />
<glyph unicode="I" horiz-adv-x="380" d="M178 0v1536h25v-1536h-25z" />
<glyph unicode="J" horiz-adv-x="653" d="M51 -4v20q36 -6 90 -6q149 0 228.5 55.5t79.5 192.5v1278h26v-1280q0 -135 -81 -200.5t-253 -65.5q-36 0 -90 6z" />
<glyph unicode="K" horiz-adv-x="1075" d="M133 0v1536h19v-905l788 905h27l-592 -678l669 -858h-30l-652 844l-210 -242v-602h-19z" />
<glyph unicode="L" horiz-adv-x="962" d="M133 0v1536h25v-1511h764v-25h-789z" />
<glyph unicode="M" horiz-adv-x="1597" d="M133 0v1536h19l647 -1317l647 1317h18v-1536h-26l2 1466l-635 -1292h-12l-635 1292l2 -1466h-27z" />
<glyph unicode="N" horiz-adv-x="1286" d="M133 0v1536h10l985 -1468l-4 1468h29v-1536h-10l-985 1468l4 -1468h-29z" />
<glyph unicode="O" horiz-adv-x="1314" d="M102 768q0 108 5.5 191t20.5 167t40.5 145t67.5 115.5t100 88t138.5 52.5t182.5 19t183 -19t139 -52.5t100 -88t67.5 -115.5t40.5 -145.5t20 -167t5 -190.5t-5 -190.5t-20 -167t-40.5 -145.5t-67.5 -115.5t-100 -88t-139 -52.5t-183 -19t-182.5 19t-138.5 52.5t-100 88 t-67.5 115.5t-40.5 145t-20.5 167t-5.5 191zM127 768q0 -111 5.5 -196t20.5 -167t40 -140.5t65 -109t95.5 -81t131.5 -47.5t172 -17t172 17t131.5 47.5t95.5 81t65.5 109t40.5 140.5t20.5 167t5.5 196t-5.5 196t-20.5 167t-40.5 140.5t-65.5 109t-95.5 81t-131.5 47.5 t-172 17t-172 -17t-131.5 -47.5t-95.5 -81t-65 -109t-40 -140.5t-20.5 -167t-5.5 -196z" />
<glyph unicode="P" horiz-adv-x="1126" d="M133 0v1536h479q107 0 188 -24t130.5 -63.5t80.5 -97.5t42.5 -118t11.5 -133t-11.5 -132.5t-42.5 -117t-80.5 -96.5t-130.5 -62.5t-188 -23.5h-454v-668h-25zM158 690h456q106 0 185.5 25.5t124.5 64t72 95.5t35.5 109.5t8.5 115.5q0 65 -8.5 117.5t-35.5 109.5t-72 95.5 t-124.5 63.5t-185.5 25h-456v-821z" />
<glyph unicode="Q" horiz-adv-x="1314" d="M102 768q0 108 5.5 191t20.5 167t40.5 145t67.5 115.5t100 88t138.5 52.5t182.5 19t183 -19t139 -52.5t100 -88t67.5 -115.5t40.5 -145.5t20 -167t5 -190.5t-5 -190.5t-20 -167t-40.5 -145.5t-67.5 -115.5t-100 -88t-139 -52.5t-183 -19q-35 0 -49 2v-2l813 -207v-27 l-948 250q-70 19 -125 49.5t-94 68t-66.5 91.5t-44 109t-26 130.5t-12.5 146.5t-3 167zM127 768q0 -131 8.5 -228t30 -186.5t59.5 -150t96 -106t141.5 -66.5t194.5 -21q96 0 172 17t131.5 47.5t95.5 81t65.5 109t40.5 140.5t20.5 167t5.5 196t-5.5 196t-20.5 167 t-40.5 140.5t-65.5 109t-95.5 81t-131.5 47.5t-172 17t-172 -17t-131.5 -47.5t-95.5 -81t-65 -109t-40 -140.5t-20.5 -167t-5.5 -196z" />
<glyph unicode="R" horiz-adv-x="1167" d="M133 0v1536h488q111 0 191 -18t129.5 -49.5t78 -83.5t39 -111t10.5 -141q0 -94 -14 -159t-51 -119t-106.5 -84.5t-174.5 -39.5l393 -731h-31l-389 729q-25 -2 -75 -2h-461v-727h-27zM160 752h481q103 0 177 20t116.5 51.5t67.5 83t32.5 103.5t7.5 123t-7.5 122.5 t-32.5 102.5t-68 82.5t-116.5 51t-176.5 19.5h-481v-759z" />
<glyph unicode="S" horiz-adv-x="1155" d="M98 59v25q71 -30 179 -51t223 -21q145 0 251.5 31t168 87t90 126.5t28.5 157.5q0 79 -12.5 134t-41.5 98.5t-81.5 71t-128 45.5t-184.5 28q-131 12 -212.5 33t-139.5 63t-81.5 107t-23.5 165q0 66 13 120t47 105t89 85.5t143.5 55.5t205.5 21q209 0 366 -61v-25 q-169 64 -366 64q-110 0 -194 -19t-136.5 -51t-85.5 -79.5t-46 -100t-13 -117.5q0 -77 15.5 -131t46 -91.5t86.5 -62t126 -39t176 -24.5q134 -13 214.5 -34t138.5 -65t81 -114.5t23 -181.5q0 -66 -15 -124t-55 -114.5t-102 -96.5t-162.5 -64.5t-230.5 -24.5 q-101 0 -217.5 21t-182.5 48z" />
<glyph unicode="T" horiz-adv-x="1044" d="M31 1511v25h983v-25h-479v-1511h-25v1511h-479z" />
<glyph unicode="U" horiz-adv-x="1286" d="M123 489v1047h22v-1038q0 -141 32 -237t98 -150.5t154.5 -77.5t213.5 -23t213.5 23t154.5 77.5t98 150.5t32 237v1038h22v-1047q0 -122 -27 -212t-72 -144.5t-114 -87t-141 -44t-166 -11.5t-166 11.5t-141 44t-114 87t-72 144.5t-27 212z" />
<glyph unicode="V" horiz-adv-x="1208" d="M51 1536h27l526 -1505l526 1505h27l-547 -1546h-12z" />
<glyph unicode="W" horiz-adv-x="1622" d="M41 1536h27l335 -1505l396 1505h24l396 -1505l335 1505h27l-352 -1546h-21l-397 1509l-397 -1509h-21z" />
<glyph unicode="X" horiz-adv-x="1110" d="M31 0l512 776l-500 760h29l483 -741l483 741h29l-500 -760l512 -776h-28l-496 758l-496 -758h-28z" />
<glyph unicode="Y" horiz-adv-x="1200" d="M41 1536h29l530 -889l530 889h29l-547 -909v-627h-24v627z" />
<glyph unicode="Z" horiz-adv-x="1146" d="M51 0v18l981 1493h-936v25h969v-18l-981 -1493h1012v-25h-1045z" />
<glyph unicode="[" horiz-adv-x="471" d="M178 -410v2048h262v-24h-237v-1999h237v-25h-262z" />
<glyph unicode="\" horiz-adv-x="733" d="M0 1638h27l706 -2048h-26z" />
<glyph unicode="]" horiz-adv-x="471" d="M31 -385h237v1999h-237v24h262v-2048h-262v25z" />
<glyph unicode="^" horiz-adv-x="1044" d="M154 1024l381 512h16l381 -512h-23l-366 483l-367 -483h-22z" />
<glyph unicode="_" horiz-adv-x="552" d="M-31 -487h615v-25h-615v25z" />
<glyph unicode="`" horiz-adv-x="1126" d="M420 1536h26l127 -410h-20z" />
<glyph unicode="a" horiz-adv-x="983" d="M102 285q0 83 21.5 140t67.5 92t108 53t154 26l372 31v90q0 110 -28 172t-102.5 93.5t-209.5 31.5q-151 0 -297 -43v20q59 19 145 31t152 12q113 0 186 -19.5t112 -63t53 -98.5t14 -140v-713h-19l-6 96q-64 -45 -168.5 -75.5t-201.5 -30.5q-184 0 -268.5 81.5 t-84.5 213.5zM127 285q0 -54 15.5 -99.5t51 -87t103 -65t162.5 -23.5q201 0 366 109v487l-383 -33q-57 -5 -100 -14t-85.5 -29.5t-69.5 -51t-43.5 -79.5t-16.5 -114z" />
<glyph unicode="b" horiz-adv-x="1083" d="M143 0v1536h25v-608q158 106 383 106q98 0 172.5 -27t121 -72.5t75.5 -113.5t40 -142.5t11 -166.5t-11 -166.5t-40 -142.5t-75.5 -113.5t-121 -72.5t-172.5 -27q-225 0 -383 106l-6 -96h-19zM168 119q163 -109 383 -109q98 0 170.5 29t115 75t67.5 114.5t33.5 134.5 t8.5 149t-8.5 149t-33.5 134.5t-67.5 114.5t-115 75t-170.5 29q-220 0 -383 -109v-786z" />
<glyph unicode="c" horiz-adv-x="911" d="M113 512q0 95 11 170.5t40 143t75.5 112t120.5 70.5t172 26q153 0 277 -39v-20q-152 39 -277 39q-96 0 -168 -28t-114.5 -73t-68.5 -112.5t-35 -135.5t-9 -153t9 -153t35 -135.5t68.5 -112.5t114.5 -73t168 -28q59 0 115.5 7t82.5 13t79 19v-20q-131 -39 -277 -39 q-98 0 -172 26t-120.5 70.5t-75.5 112t-40 143t-11 170.5z" />
<glyph unicode="d" horiz-adv-x="1083" d="M113 512q0 92 11 166.5t40 142.5t75 113.5t120.5 72.5t172.5 27q225 0 383 -106v608h25v-1536h-18l-7 96q-158 -106 -383 -106q-98 0 -172.5 27t-120.5 72.5t-75 113.5t-40 142.5t-11 166.5zM137 512q0 -83 8.5 -149t33.5 -134.5t67.5 -114.5t115 -75t170.5 -29 q220 0 383 109v786q-163 109 -383 109q-98 0 -170.5 -29t-115 -75t-67.5 -114.5t-33.5 -134.5t-8.5 -149z" />
<glyph unicode="e" horiz-adv-x="1017" d="M113 512q0 97 11 172t40 142.5t75.5 112t120 70t172.5 25.5q96 0 165 -26.5t109 -69.5t62.5 -113.5t29.5 -141.5t7 -171v-10h-768q1 -88 11 -155t35.5 -133t68 -108.5t113.5 -69t167 -26.5q151 0 320 51v-20q-155 -51 -320 -51q-99 0 -172.5 25.5t-120 70t-75.5 112 t-40 142.5t-11 172zM137 522h744q0 62 -2.5 108t-10.5 100.5t-22.5 93t-41 77t-62.5 61.5t-89.5 37.5t-120.5 14.5q-96 0 -167 -26.5t-113.5 -69t-68.5 -108.5t-35.5 -133t-10.5 -155z" />
<glyph unicode="f" horiz-adv-x="757" d="M72 1001v19l188 4v242q0 142 85 211t265 69q59 0 117 -8v-22q-58 8 -117 8q-154 0 -239.5 -59.5t-85.5 -200.5v-240h391v-23h-391v-1001h-25v1001h-188z" />
<glyph unicode="g" horiz-adv-x="956" d="M-8 -223q0 128 76 211t211 118q-148 16 -148 146q0 93 111 158q-138 76 -138 288q0 160 83 248t274 88q57 0 112 -10h338v-23l-266 3q172 -70 172 -306q0 -160 -82.5 -248t-273.5 -88q-122 0 -197 35q-53 -29 -81.5 -60.5t-28.5 -84.5q0 -63 33.5 -90.5t91.5 -34.5 l430 -57q136 -18 199 -73t63 -177q0 -108 -69 -186t-188 -117t-274 -39q-448 0 -448 299zM16 -223q0 -279 424 -279q104 0 194 20t160.5 58.5t111 101t40.5 142.5q0 112 -56.5 161.5t-187.5 67.5l-385 51q-301 -75 -301 -323zM129 698q0 -53 8 -96t30.5 -85t59 -70.5t96 -46 t138.5 -17.5t138.5 17.5t96 46t59 70.5t30.5 85t8 96t-8 96.5t-30.5 85.5t-59 70.5t-96 46t-138.5 17.5t-138.5 -17.5t-96 -46t-59 -70.5t-30.5 -85.5t-8 -96.5z" />
<glyph unicode="h" horiz-adv-x="1042" d="M143 0v1536h25v-608q163 106 403 106q183 0 260.5 -62t77.5 -212v-760h-24v764q0 74 -21 123.5t-63.5 77t-97.5 38.5t-132 11q-122 0 -228.5 -32.5t-174.5 -76.5v-905h-25z" />
<glyph unicode="i" horiz-adv-x="417" d="M143 1331q0 12 9.5 21.5t21.5 9.5t21.5 -9.5t9.5 -21.5t-9.5 -21.5t-21.5 -9.5t-21.5 9.5t-9.5 21.5zM162 90v934h24v-940q0 -40 22 -57t77 -17v-20q-70 0 -96.5 22t-26.5 78z" />
<glyph unicode="j" horiz-adv-x="370" d="M-106 -500q130 0 210 59.5t80 186.5v1278h25v-1284q0 -126 -82.5 -194t-232.5 -68v22zM166 1331q0 12 9.5 21.5t21.5 9.5t21 -9.5t9 -21.5t-9 -21.5t-21 -9.5t-21.5 9.5t-9.5 21.5z" />
<glyph unicode="k" horiz-adv-x="911" d="M143 0v1536h25v-1102l606 590h35l-430 -418l502 -606h-31l-490 590l-192 -187v-403h-25z" />
<glyph unicode="l" horiz-adv-x="417" d="M162 90v1446h24v-1452q0 -40 22 -57t77 -17v-20q-70 0 -96.5 22t-26.5 78z" />
<glyph unicode="m" horiz-adv-x="1701" d="M133 0v1024h19l6 -96q158 106 383 106q126 0 197.5 -29t101.5 -94q180 123 411 123q181 0 254.5 -61.5t73.5 -212.5v-760h-25v766q0 146 -72.5 198t-230.5 52q-214 0 -403 -121q20 -53 20 -135v-760h-24v766q0 146 -72.5 198t-230.5 52q-217 0 -383 -111v-905h-25z" />
<glyph unicode="n" horiz-adv-x="1021" d="M133 0v1024h19l6 -96q163 106 403 106q183 0 260.5 -62t77.5 -212v-760h-25v764q0 143 -77.5 196.5t-235.5 53.5q-122 0 -228.5 -32.5t-174.5 -76.5v-905h-25z" />
<glyph unicode="o" d="M113 512q0 92 11 166.5t40 142.5t75 113.5t120.5 72.5t172.5 27t172.5 -27t121 -72.5t75.5 -113.5t40 -142.5t11 -166.5t-11 -166.5t-40 -142.5t-75.5 -113.5t-121 -72.5t-172.5 -27t-172.5 27t-120.5 72.5t-75 113.5t-40 142.5t-11 166.5zM137 512q0 -83 8.5 -149 t33.5 -134.5t67.5 -114.5t115 -75t170.5 -29t170.5 29t115 75t68 114.5t34 134.5t8.5 149t-8.5 149t-34 134.5t-68 114.5t-115 75t-170.5 29t-170.5 -29t-115 -75t-67.5 -114.5t-33.5 -134.5t-8.5 -149z" />
<glyph unicode="p" horiz-adv-x="1083" d="M143 -512v1536h19l6 -96q158 106 383 106q98 0 172.5 -27t121 -72.5t75.5 -113.5t40 -142.5t11 -166.5t-11 -166.5t-40 -142.5t-75.5 -113.5t-121 -72.5t-172.5 -27q-225 0 -383 106v-608h-25zM168 119q163 -109 383 -109q98 0 170.5 29t115 75t67.5 114.5t33.5 134.5 t8.5 149t-8.5 149t-33.5 134.5t-67.5 114.5t-115 75t-170.5 29q-220 0 -383 -109v-786z" />
<glyph unicode="q" horiz-adv-x="1083" d="M113 512q0 92 11 166.5t40 142.5t75 113.5t120.5 72.5t172.5 27q225 0 383 -106l7 96h18v-1536h-25v608q-158 -106 -383 -106q-98 0 -172.5 27t-120.5 72.5t-75 113.5t-40 142.5t-11 166.5zM137 512q0 -83 8.5 -149t33.5 -134.5t67.5 -114.5t115 -75t170.5 -29 q220 0 383 109v786q-163 109 -383 109q-98 0 -170.5 -29t-115 -75t-67.5 -114.5t-33.5 -134.5t-8.5 -149z" />
<glyph unicode="r" horiz-adv-x="696" d="M133 0v1024h19l6 -96q163 106 403 106q60 0 84 -4v-20q-32 4 -84 4q-122 0 -228.5 -32.5t-174.5 -76.5v-905h-25z" />
<glyph unicode="s" horiz-adv-x="892" d="M119 35v22q55 -16 78.5 -22t80.5 -14.5t115 -8.5q104 0 179.5 20.5t116 57t59 80t18.5 96.5q0 121 -68 179t-239 75q-133 13 -205 43t-99.5 77.5t-27.5 127.5q0 266 365 266q143 0 276 -45v-22q-53 15 -78.5 21.5t-82.5 15t-115 8.5q-340 0 -340 -244q0 -114 66.5 -160 t240.5 -65q186 -20 259 -82t73 -193q0 -57 -19.5 -104.5t-63 -88t-124 -63t-191.5 -22.5q-144 0 -274 45z" />
<glyph unicode="t" horiz-adv-x="757" d="M72 1001v19l188 4v326l25 6v-332h391v-23h-391v-729q0 -141 85.5 -200.5t239.5 -59.5h11v-22h-11q-180 0 -265 69t-85 211v731h-188z" />
<glyph unicode="u" horiz-adv-x="1021" d="M123 264v760h24v-764q0 -74 21 -123.5t63.5 -77t97.5 -38.5t132 -11q122 0 228.5 32.5t174.5 76.5v905h25v-1024h-19l-6 96q-163 -106 -403 -106q-183 0 -260.5 62t-77.5 212z" />
<glyph unicode="v" horiz-adv-x="921" d="M41 1024h27l393 -987l393 987h27l-416 -1034h-8z" />
<glyph unicode="w" horiz-adv-x="1343" d="M41 1024h27l266 -995l325 995h25l326 -995l266 995h27l-281 -1034h-23l-327 997l-328 -997h-22z" />
<glyph unicode="x" horiz-adv-x="872" d="M31 0l391 528l-367 496h31l350 -477l350 477h31l-366 -496l391 -528h-31l-375 510l-375 -510h-30z" />
<glyph unicode="y" horiz-adv-x="921" d="M41 1024h27l393 -987l393 987h27l-617 -1536h-28l215 518z" />
<glyph unicode="z" horiz-adv-x="860" d="M61 0v16l680 983h-647v25h684v-16l-680 -983h701v-25h-738z" />
<glyph unicode="{" horiz-adv-x="471" d="M61 602v25h15q85 0 119 34.5t30 120.5l-41 680q-6 98 44 137t147 39h14v-24h-14q-88 0 -127 -36t-35 -114l41 -682q4 -88 -25.5 -123.5t-85.5 -44.5q56 -9 85.5 -44.5t25.5 -123.5l-41 -682q-4 -78 35 -113.5t127 -35.5h14v-25h-14q-97 0 -147 39.5t-44 137.5l41 679 q4 86 -30 121t-119 35h-15z" />
<glyph unicode="|" horiz-adv-x="442" d="M209 -410v2048h24v-2048h-24z" />
<glyph unicode="}" horiz-adv-x="471" d="M82 -385h14q88 0 127 35.5t35 113.5l-41 682q-4 88 25.5 123.5t85.5 44.5q-56 9 -85.5 44.5t-25.5 123.5l41 682q4 78 -35 114t-127 36h-14v24h14q97 0 147 -39t44 -137l-41 -680q-4 -86 30 -120.5t119 -34.5h15v-25h-15q-85 0 -119 -35t-30 -121l41 -679 q6 -98 -44 -137.5t-147 -39.5h-14v25z" />
<glyph unicode="~" horiz-adv-x="1003" d="M92 686v29q30 28 85 49.5t120 21.5q54 0 99.5 -15.5t78.5 -38t64.5 -44.5t73 -37.5t89.5 -15.5q70 0 126.5 24.5t82.5 51.5v-29q-30 -29 -84.5 -50.5t-119.5 -21.5t-121 24t-90 52t-85.5 52t-109.5 24q-70 0 -126.5 -24.5t-82.5 -51.5z" />
<glyph unicode="&#xa1;" horiz-adv-x="368" d="M154 1004q0 12 9 21t21 9t21.5 -9t9.5 -21t-9.5 -21.5t-21.5 -9.5t-21 9.5t-9 21.5zM168 -512l8 1106h17l8 -1106h-33z" />
<glyph unicode="&#xa2;" horiz-adv-x="1167" d="M113 641q0 123 32 215.5t101 161.5t185.5 104t279.5 35q28 0 94 -4l92 256h25l-95 -258q127 -15 217 -45v-21q-177 52 -337 52q-155 0 -266.5 -34.5t-177 -101t-96 -155.5t-30.5 -205t30.5 -205t96 -155.5t177 -101t266.5 -34.5q160 0 337 52v-21q-63 -22 -155 -36.5 t-178 -14.5q-119 0 -211 18l-97 -270h-24l100 274q-194 43 -280 168t-86 326z" />
<glyph unicode="&#xa3;" d="M59 0v25h207v604h-186v24h186v336q0 301 391 301q179 0 316 -35v-22q-133 37 -316 37q-366 0 -366 -281v-336h506v-24h-506v-604h704v-25h-936z" />
<glyph unicode="&#xa4;" horiz-adv-x="1249" d="M94 27l166 198q-133 121 -133 414q0 290 133 414l-166 198l21 17l166 -199q114 92 344 92q227 0 344 -92l166 199l20 -17l-168 -198q135 -126 135 -414q0 -291 -135 -414l168 -198l-20 -17l-166 199q-117 -92 -344 -92q-230 0 -344 92l-166 -199zM152 639 q0 -100 15.5 -178t46 -132.5t71 -92.5t95.5 -59.5t114 -30.5t131 -9t131 9t114 30.5t95.5 59.5t71 92.5t46 132.5t15.5 178t-15.5 178t-46 132.5t-71 92.5t-95.5 59.5t-114 30.5t-131 9t-131 -9t-114 -30.5t-95.5 -59.5t-71 -92.5t-46 -132.5t-15.5 -178z" />
<glyph unicode="&#xa5;" horiz-adv-x="1099" d="M47 1280h31l473 -760l471 760h31l-303 -483h262v-25h-279l-164 -264h443v-25h-449v-483h-24v483h-451v25h442l-163 264h-279v25h262z" />
<glyph unicode="&#xa6;" horiz-adv-x="442" d="M209 -410v973h24v-973h-24zM209 666v972h24v-972h-24z" />
<glyph unicode="&#xa7;" horiz-adv-x="1263" d="M80 584q0 249 196 336q-63 71 -63 239q0 66 13 120t47 105t89 85.5t143.5 55.5t205.5 21q225 0 366 -51v-22q-85 31 -168 42t-198 11q-110 0 -194 -19t-136.5 -51.5t-85.5 -80.5t-46 -100.5t-13 -117.5q0 -68 9.5 -117t34.5 -85.5t57.5 -59.5t90.5 -40t120.5 -26.5 t158.5 -19.5q115 -11 186 -24t132.5 -37.5t93 -63.5t48.5 -98t17 -146q0 -248 -197 -336q64 -79 64 -239q0 -66 -13 -120t-47 -105t-89 -85.5t-143.5 -55.5t-205.5 -21q-226 0 -367 51v22q85 -31 168.5 -42t198.5 -11q110 0 194 19t136.5 51.5t85.5 80.5t46 100.5t13 117.5 q0 68 -9.5 117t-34.5 85.5t-57.5 59.5t-90.5 40t-120.5 26.5t-158.5 19.5q-115 11 -186 24t-132.5 37.5t-93 63.5t-48.5 98t-17 146zM102 582q0 -68 9.5 -117t34.5 -85.5t58 -60t90.5 -40.5t120 -26.5t158.5 -19.5q161 -15 253.5 -38.5t144.5 -71.5q190 81 190 319 q0 68 -9.5 117t-34.5 85.5t-58 60t-90.5 40.5t-120 26.5t-158.5 19.5q-164 15 -255 38t-142 72q-191 -83 -191 -319z" />
<glyph unicode="&#xa8;" horiz-adv-x="1126" d="M338 1331q0 12 9.5 21.5t21.5 9.5t21 -9.5t9 -21.5t-9 -21.5t-21 -9.5t-21.5 9.5t-9.5 21.5zM727 1331q0 12 9.5 21.5t21.5 9.5t21 -9.5t9 -21.5t-9 -21.5t-21 -9.5t-21.5 9.5t-9.5 21.5z" />
<glyph unicode="&#xa9;" horiz-adv-x="1523" d="M88 641q0 155 49.5 278.5t139 205t213.5 124.5t272 43t272 -43t213.5 -124.5t139 -205t49.5 -278.5t-49.5 -278.5t-139 -205t-213.5 -124.5t-272 -43t-272 43t-213.5 124.5t-139 205t-49.5 278.5zM113 641q0 -297 176.5 -463t472.5 -166t472.5 166t176.5 463t-176.5 463 t-472.5 166t-472.5 -166t-176.5 -463zM369 641q0 201 105.5 295t293.5 94q136 0 250 -39v-22q-142 39 -250 39q-375 0 -375 -367t375 -367q108 0 250 39v-22q-114 -39 -250 -39q-188 0 -293.5 94t-105.5 295z" />
<glyph unicode="&#xaa;" horiz-adv-x="768" d="M92 993q0 104 58.5 163.5t205.5 70.5l275 22v58q0 122 -52 169.5t-200 47.5q-138 0 -223 -29v23q90 28 223 28q84 0 139.5 -14.5t85 -46.5t40.5 -72t11 -100v-535h-18l-4 70q-63 -39 -138.5 -59.5t-140.5 -20.5q-140 0 -201 62t-61 163zM117 993q0 -205 239 -205 q136 0 275 80v361l-291 -25q-114 -9 -168.5 -61t-54.5 -150z" />
<glyph unicode="&#xab;" horiz-adv-x="1013" d="M113 500v20l389 344v-26l-367 -328l367 -328v-26zM502 500v20l389 344v-26l-367 -328l367 -328v-26z" />
<glyph unicode="&#xac;" horiz-adv-x="1167" d="M184 999v25h799v-512h-25v487h-774z" />
<glyph unicode="&#xad;" horiz-adv-x="757" d="M123 686v25h512v-25h-512z" />
<glyph unicode="&#xae;" horiz-adv-x="1523" d="M88 641q0 155 49.5 278.5t139 205t213.5 124.5t272 43t272 -43t213.5 -124.5t139 -205t49.5 -278.5t-49.5 -278.5t-139 -205t-213.5 -124.5t-272 -43t-272 43t-213.5 124.5t-139 205t-49.5 278.5zM113 641q0 -297 176.5 -463t472.5 -166t472.5 166t176.5 463t-176.5 463 t-472.5 166t-472.5 -166t-176.5 -463zM498 258v766h311q129 0 180 -58t51 -161q0 -87 -37 -142t-126 -69l182 -336h-29l-180 332q-8 -2 -29 -2h-299v-330h-24zM522 610h289q203 0 203 195q0 95 -45.5 145.5t-157.5 50.5h-289v-391z" />
<glyph unicode="&#xaf;" horiz-adv-x="1126" d="M313 1321v20h500v-20h-500z" />
<glyph unicode="&#xb0;" horiz-adv-x="688" d="M72 1280q0 66 16 115t41 77t62 45.5t73 23t80 5.5t80 -5.5t73 -23t62 -45.5t41 -77t16 -115q0 -81 -23 -136t-64.5 -82t-85 -37.5t-99.5 -10.5t-99.5 10.5t-85 37.5t-64.5 82t-23 136zM96 1280q0 -127 61 -185.5t187 -58.5t187 58.5t61 185.5t-61 185.5t-187 58.5 t-187 -58.5t-61 -185.5z" />
<glyph unicode="&#xb1;" horiz-adv-x="1228" d="M205 242v24h819v-24h-819zM205 733v25h397v397h25v-397h397v-25h-397v-397h-25v397h-397z" />
<glyph unicode="&#xb2;" horiz-adv-x="858" d="M104 698v21q193 127 311 214.5t182.5 154.5t86 114.5t21.5 102.5q0 110 -76 165.5t-242 55.5q-123 0 -256 -53v22q120 51 254 51q84 0 147 -13.5t100 -35t59.5 -54t30 -65t7.5 -73.5q0 -57 -21.5 -107t-83.5 -117.5t-179 -154.5t-302 -205l613 2v-25h-652z" />
<glyph unicode="&#xb3;" horiz-adv-x="835" d="M115 731v23q136 -45 268 -45q180 0 260 53.5t80 167.5q0 120 -64.5 170.5t-218.5 50.5h-180v23h146q146 0 215 38t69 136q0 102 -69 140t-238 38q-127 0 -252 -45v22q44 18 116.5 30.5t135.5 12.5q176 0 254 -45t78 -153q0 -157 -178 -185q107 -14 159 -69.5t52 -161.5 q0 -123 -84.5 -183.5t-280.5 -60.5q-137 0 -268 43z" />
<glyph unicode="&#xb4;" horiz-adv-x="1126" d="M553 1126l127 410h27l-134 -410h-20z" />
<glyph unicode="&#xb5;" horiz-adv-x="1021" d="M123 -512v1536h24v-764q0 -74 21 -123.5t63.5 -77t97.5 -38.5t132 -11q122 0 228.5 32.5t174.5 76.5v905h25v-1024h-19l-6 96q-163 -106 -403 -106q-133 0 -208.5 30.5t-105.5 100.5v-633h-24z" />
<glyph unicode="&#xb6;" horiz-adv-x="1116" d="M51 1100q0 73 11.5 133t42.5 118t80.5 97.5t130.5 63.5t188 24h479v-1536h-25v668h-299v-668h-24v668h-131q-107 0 -188 23.5t-130.5 62.5t-80.5 96.5t-42.5 117t-11.5 132.5zM76 1100q0 -63 8.5 -115.5t35.5 -109.5t72 -95.5t124.5 -64t185.5 -25.5h133v821h-133 q-106 0 -185.5 -25t-124.5 -63.5t-72 -95.5t-35.5 -109.5t-8.5 -117.5zM659 690h299v821h-299v-821z" />
<glyph unicode="&#xb7;" horiz-adv-x="368" d="M154 698q0 12 9 21.5t21 9.5t21.5 -9.5t9.5 -21.5t-9.5 -21t-21.5 -9t-21 9t-9 21z" />
<glyph unicode="&#xb8;" horiz-adv-x="1126" d="M416 -463q68 -29 143 -29q189 0 189 148q0 74 -54 123t-143 65l4 156h16l4 -137q88 -21 142.5 -74t54.5 -133q0 -87 -58 -127.5t-143 -40.5q-83 0 -155 29v20z" />
<glyph unicode="&#xb9;" horiz-adv-x="552" d="M74 1454v23l332 69v-848h-25v820z" />
<glyph unicode="&#xba;" horiz-adv-x="884" d="M117 1157q0 210 75 299.5t250 89.5t250.5 -89.5t75.5 -299.5t-75.5 -299.5t-250.5 -89.5t-250 89.5t-75 299.5zM141 1157q0 -201 70.5 -285t230.5 -84t230.5 84t70.5 285t-70.5 285t-230.5 84t-230.5 -84t-70.5 -285z" />
<glyph unicode="&#xbb;" horiz-adv-x="1013" d="M123 156v26l366 328l-366 328v26l389 -344v-20zM512 156v26l367 328l-367 328v26l389 -344v-20z" />
<glyph unicode="&#xbc;" horiz-adv-x="1781" d="M74 1454v23l332 69v-848h-25v820zM307 0l1086 1536h28l-1085 -1536h-29zM1028 270v19l520 559h19v-553h194v-25h-194v-270h-25v270h-514zM1065 293l477 2l2 512z" />
<glyph unicode="&#xbd;" horiz-adv-x="1882" d="M74 1454v23l332 69v-848h-25v820zM307 0l1086 1536h28l-1085 -1536h-29zM1128 0v20q193 127 311 214.5t182.5 154.5t86 114.5t21.5 102.5q0 110 -76 165.5t-242 55.5q-123 0 -256 -53v23q120 51 254 51q105 0 176 -19.5t106 -55.5t48.5 -75.5t13.5 -91.5 q0 -57 -21.5 -106.5t-83.5 -117t-179 -154.5t-302 -205l613 2v-25h-652z" />
<glyph unicode="&#xbe;" horiz-adv-x="1986" d="M115 731v23q136 -45 268 -45q180 0 260 53.5t80 167.5q0 120 -64.5 170.5t-218.5 50.5h-180v23h146q146 0 215 38t69 136q0 102 -69 140t-238 38q-127 0 -252 -45v22q44 18 116.5 30.5t135.5 12.5q176 0 254 -45t78 -153q0 -157 -178 -185q107 -14 159 -69.5t52 -161.5 q0 -123 -84.5 -183.5t-280.5 -60.5q-137 0 -268 43zM512 0l1085 1536h29l-1085 -1536h-29zM1233 270v19l520 559h19v-553h194v-25h-194v-270h-25v270h-514zM1270 293l477 2l2 512z" />
<glyph unicode="&#xbf;" horiz-adv-x="1024" d="M143 -141q0 39 3.5 73t12 63t17.5 52t26 44t29.5 36t37 31t40.5 26t46.5 23.5t49.5 21t54 21.5q74 28 122 58t72 64t32.5 66t8.5 76q0 40 -6 80h17q10 -40 10 -84q0 -69 -19.5 -114t-75.5 -87t-161 -82q-112 -44 -153 -70q-114 -72 -134 -222q-4 -34 -4 -74 q0 -67 11 -118t42 -99t82.5 -78.5t136 -49t199.5 -18.5q76 0 160.5 13.5t126.5 25.5v-20q-33 -12 -129.5 -25.5t-155.5 -13.5q-124 0 -214.5 20t-144.5 53t-85.5 84t-42.5 103.5t-11 120.5zM643 1004q0 12 9.5 21t21.5 9t21.5 -9t9.5 -21t-9.5 -21.5t-21.5 -9.5t-21.5 9.5 t-9.5 21.5z" />
<glyph unicode="&#xc0;" horiz-adv-x="1208" d="M51 0l547 1546h12l547 -1546h-27l-159 453h-735l-158 -453h-27zM244 477h719l-359 1028zM461 1843h26l127 -205h-20z" />
<glyph unicode="&#xc1;" horiz-adv-x="1208" d="M51 0l547 1546h12l547 -1546h-27l-159 453h-735l-158 -453h-27zM244 477h719l-359 1028zM594 1638l127 205h27l-134 -205h-20z" />
<glyph unicode="&#xc2;" horiz-adv-x="1208" d="M51 0l547 1546h12l547 -1546h-27l-159 453h-735l-158 -453h-27zM244 477h719l-359 1028zM291 1638l307 205h12l308 -205h-29l-285 187l-285 -187h-28z" />
<glyph unicode="&#xc3;" horiz-adv-x="1208" d="M51 0l547 1546h12l547 -1546h-27l-159 453h-735l-158 -453h-27zM244 477h719l-359 1028zM295 1671q9 75 50 113.5t110 38.5q40 0 73.5 -15t57 -36t46.5 -42t54 -36t68 -15q57 0 93.5 34t43.5 97h22q-18 -151 -159 -151q-49 0 -89.5 22.5t-64.5 49t-62 49t-83 22.5 q-57 0 -94 -34t-44 -97h-22z" />
<glyph unicode="&#xc4;" horiz-adv-x="1208" d="M51 0l547 1546h12l547 -1546h-27l-159 453h-735l-158 -453h-27zM244 477h719l-359 1028zM379 1741q0 12 9.5 21.5t21.5 9.5t21 -9.5t9 -21.5t-9 -21.5t-21 -9.5t-21.5 9.5t-9.5 21.5zM768 1741q0 12 9.5 21.5t21.5 9.5t21 -9.5t9 -21.5t-9 -21.5t-21 -9.5t-21.5 9.5 t-9.5 21.5z" />
<glyph unicode="&#xc5;" horiz-adv-x="1208" d="M51 0l547 1546h12l547 -1546h-27l-159 453h-735l-158 -453h-27zM244 477h719l-359 1028zM391 1741q0 87 57 121t156 34t156 -34t57 -121t-57 -121.5t-156 -34.5t-156 34.5t-57 121.5zM412 1741q0 -41 15 -69t44 -42t60 -19t73 -5t73 5t60 19t44.5 42t15.5 69t-15.5 69 t-44.5 42t-60 19t-73 5t-73 -5t-60 -19t-44 -42t-15 -69z" />
<glyph unicode="&#xc6;" horiz-adv-x="1884" d="M39 0l776 1536h967v-25h-934l125 -700h731v-25h-727l137 -761h668v-25h-692l-80 453h-713l-227 -453h-31zM309 477h697l-181 1028z" />
<glyph unicode="&#xc7;" horiz-adv-x="1159" d="M102 768q0 193 29.5 332.5t97 242t182 153t279.5 50.5q221 0 367 -53v-23q-155 56 -367 56q-300 0 -431.5 -184.5t-131.5 -573.5t131.5 -573.5t431.5 -184.5q212 0 367 56v-23q-146 -53 -367 -53h-43v-127q88 -21 142.5 -74t54.5 -133q0 -87 -58 -127.5t-143 -40.5 q-83 0 -156 29v20q68 -29 144 -29q188 0 188 148q0 74 -53.5 123.5t-142.5 64.5l4 148q-118 7 -207 45t-149.5 102t-98 159t-54 209.5t-16.5 260.5z" />
<glyph unicode="&#xc8;" horiz-adv-x="1071" d="M133 0v1536h836v-25h-809v-700h731v-25h-731v-761h809v-25h-836zM420 1843h26l127 -205h-20z" />
<glyph unicode="&#xc9;" horiz-adv-x="1071" d="M133 0v1536h836v-25h-809v-700h731v-25h-731v-761h809v-25h-836zM553 1638l127 205h27l-134 -205h-20z" />
<glyph unicode="&#xca;" horiz-adv-x="1071" d="M133 0v1536h836v-25h-809v-700h731v-25h-731v-761h809v-25h-836zM250 1638l307 205h12l308 -205h-29l-285 187l-284 -187h-29z" />
<glyph unicode="&#xcb;" horiz-adv-x="1071" d="M133 0v1536h836v-25h-809v-700h731v-25h-731v-761h809v-25h-836zM338 1741q0 12 9.5 21.5t21.5 9.5t21 -9.5t9 -21.5t-9 -21.5t-21 -9.5t-21.5 9.5t-9.5 21.5zM727 1741q0 12 9.5 21.5t21.5 9.5t21 -9.5t9 -21.5t-9 -21.5t-21 -9.5t-21.5 9.5t-9.5 21.5z" />
<glyph unicode="&#xcc;" horiz-adv-x="380" d="M47 1843h27l127 -205h-21zM178 0v1536h25v-1536h-25z" />
<glyph unicode="&#xcd;" horiz-adv-x="380" d="M178 0v1536h25v-1536h-25zM180 1638l127 205h27l-133 -205h-21z" />
<glyph unicode="&#xce;" horiz-adv-x="380" d="M-123 1638l307 205h13l307 -205h-29l-285 187l-284 -187h-29zM178 0v1536h25v-1536h-25z" />
<glyph unicode="&#xcf;" horiz-adv-x="380" d="M6 1741q0 12 9.5 21.5t21.5 9.5t21.5 -9.5t9.5 -21.5t-9.5 -21.5t-21.5 -9.5t-21.5 9.5t-9.5 21.5zM178 0v1536h25v-1536h-25zM313 1741q0 12 9.5 21.5t21.5 9.5t21.5 -9.5t9.5 -21.5t-9.5 -21.5t-21.5 -9.5t-21.5 9.5t-9.5 21.5z" />
<glyph unicode="&#xd0;" horiz-adv-x="1339" d="M61 758v24h222v754h442q119 0 210 -23t154.5 -70t106 -110t66.5 -153t33.5 -187.5t9.5 -224.5t-9.5 -224.5t-33.5 -187.5t-66.5 -153t-106 -110t-154.5 -70t-210 -23h-442v758h-222zM309 25h400q113 0 199.5 19.5t149.5 61.5t105 101t67 145t35.5 185.5t10.5 230.5 t-10.5 230.5t-35.5 185.5t-67 145t-105 101t-149.5 61.5t-199.5 19.5h-400v-729h430v-24h-430v-733z" />
<glyph unicode="&#xd1;" horiz-adv-x="1286" d="M133 0v1536h10l985 -1468l-4 1468h29v-1536h-10l-985 1468l4 -1468h-29zM334 1671q9 75 50 113.5t110 38.5q40 0 73.5 -15t57 -36t46.5 -42t54 -36t68 -15q57 0 93.5 34t43.5 97h22q-18 -151 -159 -151q-49 0 -89.5 22.5t-64.5 49t-62 49t-83 22.5q-57 0 -94 -34t-44 -97 h-22z" />
<glyph unicode="&#xd2;" horiz-adv-x="1314" d="M102 768q0 108 5.5 191t20.5 167t40.5 145t67.5 115.5t100 88t138.5 52.5t182.5 19t183 -19t139 -52.5t100 -88t67.5 -115.5t40.5 -145.5t20 -167t5 -190.5t-5 -190.5t-20 -167t-40.5 -145.5t-67.5 -115.5t-100 -88t-139 -52.5t-183 -19t-182.5 19t-138.5 52.5t-100 88 t-67.5 115.5t-40.5 145t-20.5 167t-5.5 191zM127 768q0 -111 5.5 -196t20.5 -167t40 -140.5t65 -109t95.5 -81t131.5 -47.5t172 -17t172 17t131.5 47.5t95.5 81t65.5 109t40.5 140.5t20.5 167t5.5 196t-5.5 196t-20.5 167t-40.5 140.5t-65.5 109t-95.5 81t-131.5 47.5 t-172 17t-172 -17t-131.5 -47.5t-95.5 -81t-65 -109t-40 -140.5t-20.5 -167t-5.5 -196zM514 1843h27l127 -205h-21z" />
<glyph unicode="&#xd3;" horiz-adv-x="1314" d="M102 768q0 108 5.5 191t20.5 167t40.5 145t67.5 115.5t100 88t138.5 52.5t182.5 19t183 -19t139 -52.5t100 -88t67.5 -115.5t40.5 -145.5t20 -167t5 -190.5t-5 -190.5t-20 -167t-40.5 -145.5t-67.5 -115.5t-100 -88t-139 -52.5t-183 -19t-182.5 19t-138.5 52.5t-100 88 t-67.5 115.5t-40.5 145t-20.5 167t-5.5 191zM127 768q0 -111 5.5 -196t20.5 -167t40 -140.5t65 -109t95.5 -81t131.5 -47.5t172 -17t172 17t131.5 47.5t95.5 81t65.5 109t40.5 140.5t20.5 167t5.5 196t-5.5 196t-20.5 167t-40.5 140.5t-65.5 109t-95.5 81t-131.5 47.5 t-172 17t-172 -17t-131.5 -47.5t-95.5 -81t-65 -109t-40 -140.5t-20.5 -167t-5.5 -196zM647 1638l127 205h27l-133 -205h-21z" />
<glyph unicode="&#xd4;" horiz-adv-x="1314" d="M102 768q0 108 5.5 191t20.5 167t40.5 145t67.5 115.5t100 88t138.5 52.5t182.5 19t183 -19t139 -52.5t100 -88t67.5 -115.5t40.5 -145.5t20 -167t5 -190.5t-5 -190.5t-20 -167t-40.5 -145.5t-67.5 -115.5t-100 -88t-139 -52.5t-183 -19t-182.5 19t-138.5 52.5t-100 88 t-67.5 115.5t-40.5 145t-20.5 167t-5.5 191zM127 768q0 -111 5.5 -196t20.5 -167t40 -140.5t65 -109t95.5 -81t131.5 -47.5t172 -17t172 17t131.5 47.5t95.5 81t65.5 109t40.5 140.5t20.5 167t5.5 196t-5.5 196t-20.5 167t-40.5 140.5t-65.5 109t-95.5 81t-131.5 47.5 t-172 17t-172 -17t-131.5 -47.5t-95.5 -81t-65 -109t-40 -140.5t-20.5 -167t-5.5 -196zM344 1638l307 205h13l307 -205h-29l-285 187l-284 -187h-29z" />
<glyph unicode="&#xd5;" horiz-adv-x="1314" d="M102 768q0 108 5.5 191t20.5 167t40.5 145t67.5 115.5t100 88t138.5 52.5t182.5 19t183 -19t139 -52.5t100 -88t67.5 -115.5t40.5 -145.5t20 -167t5 -190.5t-5 -190.5t-20 -167t-40.5 -145.5t-67.5 -115.5t-100 -88t-139 -52.5t-183 -19t-182.5 19t-138.5 52.5t-100 88 t-67.5 115.5t-40.5 145t-20.5 167t-5.5 191zM127 768q0 -111 5.5 -196t20.5 -167t40 -140.5t65 -109t95.5 -81t131.5 -47.5t172 -17t172 17t131.5 47.5t95.5 81t65.5 109t40.5 140.5t20.5 167t5.5 196t-5.5 196t-20.5 167t-40.5 140.5t-65.5 109t-95.5 81t-131.5 47.5 t-172 17t-172 -17t-131.5 -47.5t-95.5 -81t-65 -109t-40 -140.5t-20.5 -167t-5.5 -196zM348 1671q9 75 50 113.5t110 38.5q40 0 73.5 -15t57 -36t46.5 -42t54 -36t68 -15q57 0 93.5 34t43.5 97h23q-18 -151 -160 -151q-49 0 -89.5 22.5t-64.5 49t-62 49t-83 22.5 q-57 0 -93.5 -34t-43.5 -97h-23z" />
<glyph unicode="&#xd6;" horiz-adv-x="1314" d="M102 768q0 108 5.5 191t20.5 167t40.5 145t67.5 115.5t100 88t138.5 52.5t182.5 19t183 -19t139 -52.5t100 -88t67.5 -115.5t40.5 -145.5t20 -167t5 -190.5t-5 -190.5t-20 -167t-40.5 -145.5t-67.5 -115.5t-100 -88t-139 -52.5t-183 -19t-182.5 19t-138.5 52.5t-100 88 t-67.5 115.5t-40.5 145t-20.5 167t-5.5 191zM127 768q0 -111 5.5 -196t20.5 -167t40 -140.5t65 -109t95.5 -81t131.5 -47.5t172 -17t172 17t131.5 47.5t95.5 81t65.5 109t40.5 140.5t20.5 167t5.5 196t-5.5 196t-20.5 167t-40.5 140.5t-65.5 109t-95.5 81t-131.5 47.5 t-172 17t-172 -17t-131.5 -47.5t-95.5 -81t-65 -109t-40 -140.5t-20.5 -167t-5.5 -196zM432 1741q0 12 9.5 21.5t21.5 9.5t21.5 -9.5t9.5 -21.5t-9.5 -21.5t-21.5 -9.5t-21.5 9.5t-9.5 21.5zM821 1741q0 12 9.5 21.5t21.5 9.5t21.5 -9.5t9.5 -21.5t-9.5 -21.5t-21.5 -9.5 t-21.5 9.5t-9.5 21.5z" />
<glyph unicode="&#xd7;" horiz-adv-x="1228" d="M315 418l281 280l-281 281l19 18l280 -280l281 280l18 -18l-280 -281l280 -280l-18 -19l-281 281l-280 -281z" />
<glyph unicode="&#xd8;" horiz-adv-x="1314" d="M100 0l119 170q-67 96 -92 241t-25 357q0 108 5.5 191t20.5 167t40.5 145t67.5 115.5t100 88t138.5 52.5t182.5 19q293 0 422 -160l107 150h28l-120 -170q68 -96 93 -240.5t25 -357.5q0 -108 -5 -190.5t-20 -167t-40.5 -145.5t-67.5 -115.5t-100 -88t-139 -52.5t-183 -19 q-292 0 -421 160l-107 -150h-29zM127 768q0 -210 22.5 -349.5t83.5 -230.5l834 1180q-124 158 -410 158q-96 0 -172 -17t-131.5 -47.5t-95.5 -81t-65 -109t-40 -140.5t-20.5 -167t-5.5 -196zM248 168q118 -158 409 -158q96 0 172 17t131.5 47.5t95.5 81t65.5 109t40.5 140.5 t20.5 167t5.5 196q0 205 -23.5 346.5t-83.5 233.5z" />
<glyph unicode="&#xd9;" horiz-adv-x="1286" d="M123 489v1047h22v-1038q0 -141 32 -237t98 -150.5t154.5 -77.5t213.5 -23t213.5 23t154.5 77.5t98 150.5t32 237v1038h22v-1047q0 -122 -27 -212t-72 -144.5t-114 -87t-141 -44t-166 -11.5t-166 11.5t-141 44t-114 87t-72 144.5t-27 212zM500 1843h26l127 -205h-20z" />
<glyph unicode="&#xda;" horiz-adv-x="1286" d="M123 489v1047h22v-1038q0 -141 32 -237t98 -150.5t154.5 -77.5t213.5 -23t213.5 23t154.5 77.5t98 150.5t32 237v1038h22v-1047q0 -122 -27 -212t-72 -144.5t-114 -87t-141 -44t-166 -11.5t-166 11.5t-141 44t-114 87t-72 144.5t-27 212zM633 1638l127 205h26l-133 -205 h-20z" />
<glyph unicode="&#xdb;" horiz-adv-x="1286" d="M123 489v1047h22v-1038q0 -141 32 -237t98 -150.5t154.5 -77.5t213.5 -23t213.5 23t154.5 77.5t98 150.5t32 237v1038h22v-1047q0 -122 -27 -212t-72 -144.5t-114 -87t-141 -44t-166 -11.5t-166 11.5t-141 44t-114 87t-72 144.5t-27 212zM330 1638l307 205h12l307 -205 h-28l-285 187l-285 -187h-28z" />
<glyph unicode="&#xdc;" horiz-adv-x="1286" d="M123 489v1047h22v-1038q0 -141 32 -237t98 -150.5t154.5 -77.5t213.5 -23t213.5 23t154.5 77.5t98 150.5t32 237v1038h22v-1047q0 -122 -27 -212t-72 -144.5t-114 -87t-141 -44t-166 -11.5t-166 11.5t-141 44t-114 87t-72 144.5t-27 212zM418 1741q0 12 9.5 21.5 t21.5 9.5t21 -9.5t9 -21.5t-9 -21.5t-21 -9.5t-21.5 9.5t-9.5 21.5zM807 1741q0 12 9.5 21.5t21.5 9.5t21 -9.5t9 -21.5t-9 -21.5t-21 -9.5t-21.5 9.5t-9.5 21.5z" />
<glyph unicode="&#xdd;" horiz-adv-x="1200" d="M41 1536h29l530 -889l530 889h29l-547 -909v-627h-24v627zM590 1638l127 205h26l-133 -205h-20z" />
<glyph unicode="&#xde;" horiz-adv-x="1126" d="M133 0v1536h25v-332h454q107 0 188 -24t130.5 -63.5t80.5 -97.5t42.5 -118t11.5 -133t-11.5 -132.5t-42.5 -117t-80.5 -96.5t-130.5 -62.5t-188 -23.5h-454v-336h-25zM158 358h456q106 0 185.5 25.5t124.5 64t72 95.5t35.5 109.5t8.5 115.5q0 45 -4 84t-16 82t-31.5 77.5 t-52 67t-76.5 54t-106.5 34.5t-139.5 13h-456v-822z" />
<glyph unicode="&#xdf;" horiz-adv-x="1062" d="M156 0v1245q0 142 77.5 221.5t235.5 79.5q334 0 334 -307q0 -64 -20.5 -112.5t-53 -77.5t-72 -51.5t-78.5 -43t-71.5 -44t-53 -62t-20.5 -90.5q0 -32 5 -57t19.5 -43.5t26 -30t39.5 -23t43 -17t54 -16.5t57 -16q116 -31 154 -50q116 -55 135 -182q4 -27 4 -59 q0 -274 -346 -274q-111 0 -226 28l2 21q122 -29 224 -29q70 0 124 11.5t88 32t56.5 44.5t33.5 55t15 56.5t4 54.5q0 57 -13.5 98.5t-33.5 68t-60 47.5t-75 32.5t-96 26.5q-34 8 -48 12t-43 12.5t-41.5 14.5t-34 16.5t-31.5 20.5t-23.5 25.5t-19.5 32.5t-10.5 39t-4.5 48 q0 55 20.5 96.5t53 66.5t71.5 45.5t78 42.5t71.5 49.5t53 73.5t20.5 107q0 141 -78 214t-233 73q-144 0 -216.5 -73.5t-72.5 -205.5v-1247h-24z" />
<glyph unicode="&#xe0;" horiz-adv-x="983" d="M102 285q0 83 21.5 140t67.5 92t108 53t154 26l372 31v90q0 110 -28 172t-102.5 93.5t-209.5 31.5q-151 0 -297 -43v20q59 19 145 31t152 12q113 0 186 -19.5t112 -63t53 -98.5t14 -140v-713h-19l-6 96q-64 -45 -168.5 -75.5t-201.5 -30.5q-184 0 -268.5 81.5 t-84.5 213.5zM127 285q0 -54 15.5 -99.5t51 -87t103 -65t162.5 -23.5q201 0 366 109v487l-383 -33q-57 -5 -100 -14t-85.5 -29.5t-69.5 -51t-43.5 -79.5t-16.5 -114zM342 1536h27l127 -410h-21z" />
<glyph unicode="&#xe1;" horiz-adv-x="983" d="M102 285q0 83 21.5 140t67.5 92t108 53t154 26l372 31v90q0 110 -28 172t-102.5 93.5t-209.5 31.5q-151 0 -297 -43v20q59 19 145 31t152 12q113 0 186 -19.5t112 -63t53 -98.5t14 -140v-713h-19l-6 96q-64 -45 -168.5 -75.5t-201.5 -30.5q-184 0 -268.5 81.5 t-84.5 213.5zM127 285q0 -54 15.5 -99.5t51 -87t103 -65t162.5 -23.5q201 0 366 109v487l-383 -33q-57 -5 -100 -14t-85.5 -29.5t-69.5 -51t-43.5 -79.5t-16.5 -114zM475 1126l127 410h27l-133 -410h-21z" />
<glyph unicode="&#xe2;" horiz-adv-x="983" d="M102 285q0 83 21.5 140t67.5 92t108 53t154 26l372 31v90q0 110 -28 172t-102.5 93.5t-209.5 31.5q-151 0 -297 -43v20q59 19 145 31t152 12q113 0 186 -19.5t112 -63t53 -98.5t14 -140v-713h-19l-6 96q-64 -45 -168.5 -75.5t-201.5 -30.5q-184 0 -268.5 81.5 t-84.5 213.5zM127 285q0 -54 15.5 -99.5t51 -87t103 -65t162.5 -23.5q201 0 366 109v487l-383 -33q-57 -5 -100 -14t-85.5 -29.5t-69.5 -51t-43.5 -79.5t-16.5 -114zM172 1126l303 410h21l303 -410h-25l-289 387l-288 -387h-25z" />
<glyph unicode="&#xe3;" horiz-adv-x="983" d="M102 285q0 83 21.5 140t67.5 92t108 53t154 26l372 31v90q0 110 -28 172t-102.5 93.5t-209.5 31.5q-151 0 -297 -43v20q59 19 145 31t152 12q113 0 186 -19.5t112 -63t53 -98.5t14 -140v-713h-19l-6 96q-64 -45 -168.5 -75.5t-201.5 -30.5q-184 0 -268.5 81.5 t-84.5 213.5zM127 285q0 -54 15.5 -99.5t51 -87t103 -65t162.5 -23.5q201 0 366 109v487l-383 -33q-57 -5 -100 -14t-85.5 -29.5t-69.5 -51t-43.5 -79.5t-16.5 -114zM176 1262q18 151 160 151q49 0 89.5 -22.5t64.5 -49t62 -49t83 -22.5q57 0 93.5 34t43.5 97h23 q-9 -75 -50 -113.5t-110 -38.5q-40 0 -73.5 15t-57 36t-46.5 42t-54 36t-68 15q-57 0 -93.5 -34t-43.5 -97h-23z" />
<glyph unicode="&#xe4;" horiz-adv-x="983" d="M102 285q0 83 21.5 140t67.5 92t108 53t154 26l372 31v90q0 110 -28 172t-102.5 93.5t-209.5 31.5q-151 0 -297 -43v20q59 19 145 31t152 12q113 0 186 -19.5t112 -63t53 -98.5t14 -140v-713h-19l-6 96q-64 -45 -168.5 -75.5t-201.5 -30.5q-184 0 -268.5 81.5 t-84.5 213.5zM127 285q0 -54 15.5 -99.5t51 -87t103 -65t162.5 -23.5q201 0 366 109v487l-383 -33q-57 -5 -100 -14t-85.5 -29.5t-69.5 -51t-43.5 -79.5t-16.5 -114zM260 1331q0 12 9.5 21.5t21.5 9.5t21.5 -9.5t9.5 -21.5t-9.5 -21.5t-21.5 -9.5t-21.5 9.5t-9.5 21.5z M649 1331q0 12 9.5 21.5t21.5 9.5t21.5 -9.5t9.5 -21.5t-9.5 -21.5t-21.5 -9.5t-21.5 9.5t-9.5 21.5z" />
<glyph unicode="&#xe5;" horiz-adv-x="983" d="M102 285q0 83 21.5 140t67.5 92t108 53t154 26l372 31v90q0 110 -28 172t-102.5 93.5t-209.5 31.5q-151 0 -297 -43v20q59 19 145 31t152 12q113 0 186 -19.5t112 -63t53 -98.5t14 -140v-713h-19l-6 96q-64 -45 -168.5 -75.5t-201.5 -30.5q-184 0 -268.5 81.5 t-84.5 213.5zM127 285q0 -54 15.5 -99.5t51 -87t103 -65t162.5 -23.5q201 0 366 109v487l-383 -33q-57 -5 -100 -14t-85.5 -29.5t-69.5 -51t-43.5 -79.5t-16.5 -114zM279 1331q0 101 55 154t158 53t158 -53t55 -154t-55 -154t-158 -53t-158 53t-55 154zM299 1331 q0 -92 50.5 -139t142.5 -47t142 47t50 139t-50 139.5t-142 47.5t-142.5 -47.5t-50.5 -139.5z" />
<glyph unicode="&#xe6;" horiz-adv-x="1679" d="M51 260q0 149 76 205.5t233 56.5h414v195q0 110 -28 172t-102.5 93.5t-209.5 31.5q-151 0 -297 -43v20q59 19 145 31t152 12q107 0 177.5 -17.5t110.5 -55.5t57 -88t20 -125q34 138 128 212t267 74q96 0 165 -26.5t109 -69.5t62.5 -113.5t29.5 -141.5t7 -171v-10h-768 q1 -88 10.5 -155t35.5 -133t68.5 -108.5t113.5 -69t167 -26.5q150 0 319 51v-20q-155 -51 -319 -51q-250 0 -348 164q-31 -31 -72 -58q-64 -45 -169 -75.5t-202 -30.5q-352 0 -352 270zM76 260q0 -250 332 -250q201 0 366 109q41 27 62 55q-62 118 -62 328h-418 q-44 0 -76.5 -3t-73.5 -17t-67 -38.5t-44.5 -71.5t-18.5 -112zM799 522h743q0 63 -2.5 108.5t-10.5 100t-22.5 93t-40.5 77t-62 61.5t-89.5 37.5t-120.5 14.5q-94 0 -164 -25t-112.5 -66t-69 -103.5t-37 -127.5t-12.5 -149v-21z" />
<glyph unicode="&#xe7;" horiz-adv-x="911" d="M113 512q0 95 11 170.5t40 143t75.5 112t120.5 70.5t172 26q153 0 277 -39v-20q-152 39 -277 39q-96 0 -168 -28t-114.5 -73t-68.5 -112.5t-35 -135.5t-9 -153t9 -153t35 -135.5t68.5 -112.5t114.5 -73t168 -28q59 0 115.5 7t82.5 13t79 19v-20q-131 -39 -277 -39h-2 l5 -127q88 -21 142 -74t54 -133q0 -87 -58 -127.5t-143 -40.5q-82 0 -155 29v20q68 -29 143 -29q189 0 189 148q0 74 -54 123t-143 65l4 146q-94 2 -165 29.5t-115.5 72.5t-72 112t-38 141t-10.5 167z" />
<glyph unicode="&#xe8;" horiz-adv-x="1017" d="M113 512q0 97 11 172t40 142.5t75.5 112t120 70t172.5 25.5q96 0 165 -26.5t109 -69.5t62.5 -113.5t29.5 -141.5t7 -171v-10h-768q1 -88 10.5 -155t35.5 -133t68.5 -108.5t113.5 -69t167 -26.5q151 0 320 51v-20q-155 -51 -320 -51q-99 0 -172.5 25.5t-120 70t-75.5 112 t-40 142.5t-11 172zM137 522h744q0 62 -2.5 108t-10.5 100.5t-22.5 93t-41 77t-62.5 61.5t-89.5 37.5t-120.5 14.5q-96 0 -167 -26.5t-113.5 -69t-68.5 -108.5t-35.5 -133t-10.5 -155zM369 1536h26l127 -410h-20z" />
<glyph unicode="&#xe9;" horiz-adv-x="1017" d="M113 512q0 97 11 172t40 142.5t75.5 112t120 70t172.5 25.5q96 0 165 -26.5t109 -69.5t62.5 -113.5t29.5 -141.5t7 -171v-10h-768q1 -88 10.5 -155t35.5 -133t68.5 -108.5t113.5 -69t167 -26.5q151 0 320 51v-20q-155 -51 -320 -51q-99 0 -172.5 25.5t-120 70t-75.5 112 t-40 142.5t-11 172zM137 522h744q0 62 -2.5 108t-10.5 100.5t-22.5 93t-41 77t-62.5 61.5t-89.5 37.5t-120.5 14.5q-96 0 -167 -26.5t-113.5 -69t-68.5 -108.5t-35.5 -133t-10.5 -155zM502 1126l127 410h26l-133 -410h-20z" />
<glyph unicode="&#xea;" horiz-adv-x="1017" d="M113 512q0 97 11 172t40 142.5t75.5 112t120 70t172.5 25.5q96 0 165 -26.5t109 -69.5t62.5 -113.5t29.5 -141.5t7 -171v-10h-768q1 -88 10.5 -155t35.5 -133t68.5 -108.5t113.5 -69t167 -26.5q151 0 320 51v-20q-155 -51 -320 -51q-99 0 -172.5 25.5t-120 70t-75.5 112 t-40 142.5t-11 172zM137 522h744q0 62 -2.5 108t-10.5 100.5t-22.5 93t-41 77t-62.5 61.5t-89.5 37.5t-120.5 14.5q-96 0 -167 -26.5t-113.5 -69t-68.5 -108.5t-35.5 -133t-10.5 -155zM199 1126l303 410h20l303 -410h-24l-289 387l-289 -387h-24z" />
<glyph unicode="&#xeb;" horiz-adv-x="1017" d="M113 512q0 97 11 172t40 142.5t75.5 112t120 70t172.5 25.5q96 0 165 -26.5t109 -69.5t62.5 -113.5t29.5 -141.5t7 -171v-10h-768q1 -88 10.5 -155t35.5 -133t68.5 -108.5t113.5 -69t167 -26.5q151 0 320 51v-20q-155 -51 -320 -51q-99 0 -172.5 25.5t-120 70t-75.5 112 t-40 142.5t-11 172zM137 522h744q0 62 -2.5 108t-10.5 100.5t-22.5 93t-41 77t-62.5 61.5t-89.5 37.5t-120.5 14.5q-96 0 -167 -26.5t-113.5 -69t-68.5 -108.5t-35.5 -133t-10.5 -155zM287 1331q0 12 9 21.5t21 9.5t21.5 -9.5t9.5 -21.5t-9.5 -21.5t-21.5 -9.5t-21 9.5 t-9 21.5zM676 1331q0 12 9.5 21.5t21.5 9.5t21 -9.5t9 -21.5t-9 -21.5t-21 -9.5t-21.5 9.5t-9.5 21.5z" />
<glyph unicode="&#xec;" horiz-adv-x="417" d="M31 1536h26l127 -410h-20zM162 90v934h24v-940q0 -40 22 -57t77 -17v-20q-70 0 -96.5 22t-26.5 78z" />
<glyph unicode="&#xed;" horiz-adv-x="417" d="M162 90v934h24v-940q0 -40 22 -57t77 -17v-20q-70 0 -96.5 22t-26.5 78zM164 1126l127 410h26l-133 -410h-20z" />
<glyph unicode="&#xee;" horiz-adv-x="417" d="M-139 1126l303 410h20l303 -410h-24l-289 387l-289 -387h-24zM162 90v934h24v-940q0 -40 22 -57t77 -17v-20q-70 0 -96.5 22t-26.5 78z" />
<glyph unicode="&#xef;" horiz-adv-x="417" d="M-10 1331q0 12 9 21.5t21 9.5t21.5 -9.5t9.5 -21.5t-9.5 -21.5t-21.5 -9.5t-21 9.5t-9 21.5zM162 90v934h24v-940q0 -40 22 -57t77 -17v-20q-70 0 -96.5 22t-26.5 78zM297 1331q0 12 9.5 21.5t21.5 9.5t21 -9.5t9 -21.5t-9 -21.5t-21 -9.5t-21.5 9.5t-9.5 21.5z" />
<glyph unicode="&#xf0;" d="M113 512q0 92 11 166.5t40 142.5t75 113.5t120.5 72.5t172.5 27q273 0 367 -209q-55 185 -127 315.5t-182 231.5l-324 -164v25l305 156q-77 69 -213 147h43q107 -59 193 -137l266 137v-25l-250 -127q163 -153 252.5 -374.5t89.5 -497.5q0 -92 -11 -166.5t-40 -142.5 t-75.5 -113.5t-121 -72.5t-172.5 -27t-172.5 27t-120.5 72.5t-75 113.5t-40 142.5t-11 166.5zM137 512q0 -83 8.5 -149t33.5 -134.5t67.5 -114.5t115 -75t170.5 -29t170.5 29t115 75t68 114.5t34 134.5t8.5 149t-8.5 149t-34 134.5t-68 114.5t-115 75t-170.5 29t-170.5 -29 t-115 -75t-67.5 -114.5t-33.5 -134.5t-8.5 -149z" />
<glyph unicode="&#xf1;" horiz-adv-x="1021" d="M133 0v1024h19l6 -96q163 106 403 106q183 0 260.5 -62t77.5 -212v-760h-25v764q0 143 -77.5 196.5t-235.5 53.5q-122 0 -228.5 -32.5t-174.5 -76.5v-905h-25zM217 1262q18 151 160 151q49 0 89.5 -22.5t64.5 -49t62 -49t83 -22.5q57 0 93.5 34t43.5 97h23 q-9 -75 -50 -113.5t-110 -38.5q-40 0 -73.5 15t-57 36t-46.5 42t-54 36t-68 15q-57 0 -93.5 -34t-43.5 -97h-23z" />
<glyph unicode="&#xf2;" d="M113 512q0 92 11 166.5t40 142.5t75 113.5t120.5 72.5t172.5 27t172.5 -27t121 -72.5t75.5 -113.5t40 -142.5t11 -166.5t-11 -166.5t-40 -142.5t-75.5 -113.5t-121 -72.5t-172.5 -27t-172.5 27t-120.5 72.5t-75 113.5t-40 142.5t-11 166.5zM137 512q0 -83 8.5 -149 t33.5 -134.5t67.5 -114.5t115 -75t170.5 -29t170.5 29t115 75t68 114.5t34 134.5t8.5 149t-8.5 149t-34 134.5t-68 114.5t-115 75t-170.5 29t-170.5 -29t-115 -75t-67.5 -114.5t-33.5 -134.5t-8.5 -149zM385 1536h35l125 -410h-25z" />
<glyph unicode="&#xf3;" d="M113 512q0 92 11 166.5t40 142.5t75 113.5t120.5 72.5t172.5 27t172.5 -27t121 -72.5t75.5 -113.5t40 -142.5t11 -166.5t-11 -166.5t-40 -142.5t-75.5 -113.5t-121 -72.5t-172.5 -27t-172.5 27t-120.5 72.5t-75 113.5t-40 142.5t-11 166.5zM137 512q0 -83 8.5 -149 t33.5 -134.5t67.5 -114.5t115 -75t170.5 -29t170.5 29t115 75t68 114.5t34 134.5t8.5 149t-8.5 149t-34 134.5t-68 114.5t-115 75t-170.5 29t-170.5 -29t-115 -75t-67.5 -114.5t-33.5 -134.5t-8.5 -149zM520 1126l125 410h35l-135 -410h-25z" />
<glyph unicode="&#xf4;" d="M113 512q0 92 11 166.5t40 142.5t75 113.5t120.5 72.5t172.5 27t172.5 -27t121 -72.5t75.5 -113.5t40 -142.5t11 -166.5t-11 -166.5t-40 -142.5t-75.5 -113.5t-121 -72.5t-172.5 -27t-172.5 27t-120.5 72.5t-75 113.5t-40 142.5t-11 166.5zM137 512q0 -83 8.5 -149 t33.5 -134.5t67.5 -114.5t115 -75t170.5 -29t170.5 29t115 75t68 114.5t34 134.5t8.5 149t-8.5 149t-34 134.5t-68 114.5t-115 75t-170.5 29t-170.5 -29t-115 -75t-67.5 -114.5t-33.5 -134.5t-8.5 -149zM219 1126l301 410h25l301 -410h-27l-287 385l-286 -385h-27z" />
<glyph unicode="&#xf5;" d="M113 512q0 92 11 166.5t40 142.5t75 113.5t120.5 72.5t172.5 27t172.5 -27t121 -72.5t75.5 -113.5t40 -142.5t11 -166.5t-11 -166.5t-40 -142.5t-75.5 -113.5t-121 -72.5t-172.5 -27t-172.5 27t-120.5 72.5t-75 113.5t-40 142.5t-11 166.5zM137 512q0 -83 8.5 -149 t33.5 -134.5t67.5 -114.5t115 -75t170.5 -29t170.5 29t115 75t68 114.5t34 134.5t8.5 149t-8.5 149t-34 134.5t-68 114.5t-115 75t-170.5 29t-170.5 -29t-115 -75t-67.5 -114.5t-33.5 -134.5t-8.5 -149zM223 1262q18 151 160 151q49 0 89.5 -22.5t64.5 -49t62 -49t83 -22.5 q57 0 93.5 34t43.5 97h23q-9 -75 -50 -113.5t-110 -38.5q-40 0 -73.5 15t-57 36t-46.5 42t-54 36t-68 15q-57 0 -93.5 -34t-43.5 -97h-23z" />
<glyph unicode="&#xf6;" d="M113 512q0 92 11 166.5t40 142.5t75 113.5t120.5 72.5t172.5 27t172.5 -27t121 -72.5t75.5 -113.5t40 -142.5t11 -166.5t-11 -166.5t-40 -142.5t-75.5 -113.5t-121 -72.5t-172.5 -27t-172.5 27t-120.5 72.5t-75 113.5t-40 142.5t-11 166.5zM137 512q0 -83 8.5 -149 t33.5 -134.5t67.5 -114.5t115 -75t170.5 -29t170.5 29t115 75t68 114.5t34 134.5t8.5 149t-8.5 149t-34 134.5t-68 114.5t-115 75t-170.5 29t-170.5 -29t-115 -75t-67.5 -114.5t-33.5 -134.5t-8.5 -149zM307 1331q0 12 9.5 21.5t21.5 9.5t21.5 -9.5t9.5 -21.5t-9.5 -21.5 t-21.5 -9.5t-21.5 9.5t-9.5 21.5zM696 1331q0 12 9.5 21.5t21.5 9.5t21.5 -9.5t9.5 -21.5t-9.5 -21.5t-21.5 -9.5t-21.5 9.5t-9.5 21.5z" />
<glyph unicode="&#xf7;" horiz-adv-x="1228" d="M205 686v25h819v-25h-819zM584 393q0 12 9 21.5t21 9.5t21.5 -9.5t9.5 -21.5t-9.5 -21.5t-21.5 -9.5t-21 9.5t-9 21.5zM584 1004q0 12 9 21t21 9t21.5 -9t9.5 -21t-9.5 -21.5t-21.5 -9.5t-21 9.5t-9 21.5z" />
<glyph unicode="&#xf8;" d="M113 512q0 92 11 166.5t40 142.5t75 113.5t120.5 72.5t172.5 27q188 0 287 -96l62 86h28l-73 -102q116 -127 116 -410q0 -92 -11 -166.5t-40 -142.5t-75.5 -113.5t-121 -72.5t-172.5 -27q-183 0 -288 94l-60 -84h-28l71 102q-114 125 -114 410zM137 512q0 -274 105 -391 l565 799q-97 94 -275 94q-98 0 -170.5 -29t-115 -75t-67.5 -114.5t-33.5 -134.5t-8.5 -149zM258 104q94 -94 274 -94q98 0 170.5 29t115 75t68 114.5t34 134.5t8.5 149q0 269 -105 389z" />
<glyph unicode="&#xf9;" horiz-adv-x="1021" d="M123 264v760h24v-764q0 -74 21 -123.5t63.5 -77t97.5 -38.5t132 -11q122 0 228.5 32.5t174.5 76.5v905h25v-1024h-19l-6 96q-163 -106 -403 -106q-183 0 -260.5 62t-77.5 212zM365 1536h26l127 -410h-20z" />
<glyph unicode="&#xfa;" horiz-adv-x="1021" d="M123 264v760h24v-764q0 -74 21 -123.5t63.5 -77t97.5 -38.5t132 -11q122 0 228.5 32.5t174.5 76.5v905h25v-1024h-19l-6 96q-163 -106 -403 -106q-183 0 -260.5 62t-77.5 212zM498 1126l127 410h26l-133 -410h-20z" />
<glyph unicode="&#xfb;" horiz-adv-x="1021" d="M123 264v760h24v-764q0 -74 21 -123.5t63.5 -77t97.5 -38.5t132 -11q122 0 228.5 32.5t174.5 76.5v905h25v-1024h-19l-6 96q-163 -106 -403 -106q-183 0 -260.5 62t-77.5 212zM195 1126l303 410h20l303 -410h-24l-289 387l-289 -387h-24z" />
<glyph unicode="&#xfc;" horiz-adv-x="1021" d="M123 264v760h24v-764q0 -74 21 -123.5t63.5 -77t97.5 -38.5t132 -11q122 0 228.5 32.5t174.5 76.5v905h25v-1024h-19l-6 96q-163 -106 -403 -106q-183 0 -260.5 62t-77.5 212zM283 1331q0 12 9 21.5t21 9.5t21.5 -9.5t9.5 -21.5t-9.5 -21.5t-21.5 -9.5t-21 9.5t-9 21.5z M672 1331q0 12 9 21.5t21 9.5t21.5 -9.5t9.5 -21.5t-9.5 -21.5t-21.5 -9.5t-21 9.5t-9 21.5z" />
<glyph unicode="&#xfd;" horiz-adv-x="921" d="M41 1024h27l393 -987l393 987h27l-617 -1536h-28l215 518zM451 1126l127 410h26l-133 -410h-20z" />
<glyph unicode="&#xfe;" horiz-adv-x="1083" d="M143 -512v2048h25v-608q158 106 383 106q98 0 172.5 -27t121 -72.5t75.5 -113.5t40 -142.5t11 -166.5t-11 -166.5t-40 -142.5t-75.5 -113.5t-121 -72.5t-172.5 -27q-225 0 -383 106v-608h-25zM168 119q163 -109 383 -109q98 0 170.5 29t115 75t67.5 114.5t33.5 134.5 t8.5 149t-8.5 149t-33.5 134.5t-67.5 114.5t-115 75t-170.5 29q-220 0 -383 -109v-786z" />
<glyph unicode="&#xff;" horiz-adv-x="921" d="M41 1024h27l393 -987l393 987h27l-617 -1536h-28l215 518zM236 1331q0 12 9 21.5t21 9.5t21.5 -9.5t9.5 -21.5t-9.5 -21.5t-21.5 -9.5t-21 9.5t-9 21.5zM625 1331q0 12 9 21.5t21 9.5t21.5 -9.5t9.5 -21.5t-9.5 -21.5t-21.5 -9.5t-21 9.5t-9 21.5z" />
<glyph unicode="&#x152;" horiz-adv-x="1830" d="M102 768q0 127 9.5 224.5t33.5 187.5t66.5 153t106 110t154.5 70t210 23h1047v-25h-768v-700h690v-25h-690v-761h768v-25h-1047q-119 0 -210 23t-154.5 70t-106 110t-66.5 153t-33.5 187.5t-9.5 224.5zM131 768q0 -131 10.5 -230.5t35.5 -185.5t67 -145t105 -101 t149.5 -61.5t199.5 -19.5h236v1486h-236q-113 0 -199.5 -19.5t-149.5 -61.5t-105 -101t-67 -145t-35.5 -185.5t-10.5 -230.5z" />
<glyph unicode="&#x153;" horiz-adv-x="1832" d="M113 512q0 92 11 166.5t40 142.5t75 113.5t120.5 72.5t172.5 27q97 0 170 -25t120.5 -72.5t75.5 -109t42 -141.5q26 169 121.5 258.5t286.5 89.5q69 0 124 -13.5t94 -36.5t67 -61t44.5 -79t26.5 -97.5t13 -110t3 -124.5v-10h-768q1 -88 10.5 -155t35.5 -133t69 -109 t114 -69t167 -26q150 0 319 51v-20q-155 -51 -319 -51q-191 0 -286.5 89t-121.5 257q-28 -164 -124.5 -255t-283.5 -91q-98 0 -172.5 27t-120.5 72.5t-75 113.5t-40 142.5t-11 166.5zM137 512q0 -83 8.5 -149t33.5 -134.5t67.5 -114.5t115 -75t170.5 -29q95 0 166.5 27 t114 70.5t68.5 108.5t36 129t11 144v46q-1 79 -11 143.5t-36 129t-68.5 108t-114 71t-166.5 27.5q-98 0 -170.5 -29t-115 -75t-67.5 -114.5t-33.5 -134.5t-8.5 -149zM952 522h744q0 63 -2.5 108.5t-10.5 100t-22.5 93t-40.5 77t-62 61.5t-89.5 37.5t-120.5 14.5 q-95 0 -165.5 -25.5t-113 -67.5t-69 -106.5t-36.5 -130.5t-12 -152v-10z" />
<glyph unicode="&#x178;" horiz-adv-x="1200" d="M41 1536h29l530 -889l530 889h29l-547 -909v-627h-24v627zM375 1741q0 12 9.5 21.5t21.5 9.5t21 -9.5t9 -21.5t-9 -21.5t-21 -9.5t-21.5 9.5t-9.5 21.5zM764 1741q0 12 9.5 21.5t21.5 9.5t21 -9.5t9 -21.5t-9 -21.5t-21 -9.5t-21.5 9.5t-9.5 21.5z" />
<glyph unicode="&#x2c6;" horiz-adv-x="1126" d="M250 1126l303 410h20l304 -410h-25l-289 387l-289 -387h-24z" />
<glyph unicode="&#x2dc;" horiz-adv-x="1126" d="M254 1262q18 151 160 151q49 0 89.5 -22.5t64.5 -49t62 -49t83 -22.5q57 0 93.5 34t43.5 97h22q-18 -152 -159 -152q-40 0 -73.5 15t-57 36t-46.5 42t-54 36t-68 15q-57 0 -94 -34t-44 -97h-22z" />
<glyph unicode="&#x2000;" horiz-adv-x="948" />
<glyph unicode="&#x2001;" horiz-adv-x="1896" />
<glyph unicode="&#x2002;" horiz-adv-x="948" />
<glyph unicode="&#x2003;" horiz-adv-x="1896" />
<glyph unicode="&#x2004;" horiz-adv-x="632" />
<glyph unicode="&#x2005;" horiz-adv-x="474" />
<glyph unicode="&#x2006;" horiz-adv-x="316" />
<glyph unicode="&#x2007;" horiz-adv-x="316" />
<glyph unicode="&#x2008;" horiz-adv-x="237" />
<glyph unicode="&#x2009;" horiz-adv-x="379" />
<glyph unicode="&#x200a;" horiz-adv-x="105" />
<glyph unicode="&#x2010;" horiz-adv-x="757" d="M123 686v25h512v-25h-512z" />
<glyph unicode="&#x2011;" horiz-adv-x="757" d="M123 686v25h512v-25h-512z" />
<glyph unicode="&#x2012;" horiz-adv-x="757" d="M123 686v25h512v-25h-512z" />
<glyph unicode="&#x2013;" horiz-adv-x="1024" d="M123 686v25h778v-25h-778z" />
<glyph unicode="&#x2014;" horiz-adv-x="2048" d="M123 686v25h1802v-25h-1802z" />
<glyph unicode="&#x2018;" horiz-adv-x="227" d="M39 1024l137 512h12l-110 -512h-39z" />
<glyph unicode="&#x2019;" horiz-adv-x="227" d="M39 1024l111 512h38l-137 -512h-12z" />
<glyph unicode="&#x201a;" horiz-adv-x="227" d="M39 -328l111 512h38l-137 -512h-12z" />
<glyph unicode="&#x201c;" horiz-adv-x="370" d="M39 1024l137 512h12l-110 -512h-39zM182 1024l137 512h13l-111 -512h-39z" />
<glyph unicode="&#x201d;" horiz-adv-x="370" d="M39 1024l111 512h38l-137 -512h-12zM182 1024l111 512h39l-137 -512h-13z" />
<glyph unicode="&#x201e;" horiz-adv-x="370" d="M39 -328l111 512h38l-137 -512h-12zM182 -328l111 512h39l-137 -512h-13z" />
<glyph unicode="&#x2022;" horiz-adv-x="819" d="M143 768q0 110 78.5 188t188.5 78t188 -78t78 -188t-78 -188t-188 -78t-188.5 78t-78.5 188z" />
<glyph unicode="&#x2026;" horiz-adv-x="2027" d="M307 20q0 12 9.5 21.5t21.5 9.5t21.5 -9.5t9.5 -21.5t-9.5 -21t-21.5 -9t-21.5 9t-9.5 21zM983 20q0 12 9.5 21.5t21.5 9.5t21 -9.5t9 -21.5t-9 -21t-21 -9t-21.5 9t-9.5 21zM1659 20q0 12 9.5 21.5t21.5 9.5t21 -9.5t9 -21.5t-9 -21t-21 -9t-21.5 9t-9.5 21z" />
<glyph unicode="&#x202f;" horiz-adv-x="379" />
<glyph unicode="&#x2039;" horiz-adv-x="624" d="M113 500v20l389 344v-26l-367 -328l367 -328v-26z" />
<glyph unicode="&#x203a;" horiz-adv-x="624" d="M123 156v26l366 328l-366 328v26l389 -344v-20z" />
<glyph unicode="&#x205f;" horiz-adv-x="474" />
<glyph unicode="&#x20ac;" horiz-adv-x="1081" d="M23 483v25h161q-6 64 -6 133q0 67 6 131h-161v25h163q14 108 48 194t93.5 155t153.5 106.5t217 37.5q180 0 318 -43v-22q-138 45 -320 45q-93 0 -169 -25t-129 -67.5t-91.5 -103.5t-60.5 -129t-33 -148h647l-10 -25h-641q-6 -65 -6 -131q0 -69 6 -133h524l-10 -25h-510 q14 -102 46.5 -184t88.5 -148.5t144.5 -103.5t203.5 -37q182 0 320 45v-22q-138 -43 -318 -43q-123 0 -217 37.5t-153.5 106.5t-93.5 155t-48 194h-163z" />
<glyph unicode="&#x2122;" horiz-adv-x="1110" d="M10 1511v25h414v-25h-195v-487h-24v487h-195zM557 1024v512h23l200 -399l201 399h23v-512h-27l4 457l-195 -387h-12l-194 387l4 -457h-27z" />
<glyph unicode="&#x25fc;" horiz-adv-x="1024" d="M0 0v1024h1024v-1024h-1024z" />
</font>
</defs>
</svg>
